<?xml version="1.0" encoding="utf-8"?>
<!-- Generator: Adobe Illustrator 21.1.0, SVG Export Plug-In . SVG Version: 6.00 Build 0)  -->
<svg version="1.1" id="box" xmlns="http://www.w3.org/2000/svg" xmlns:xlink="http://www.w3.org/1999/xlink" x="0px" y="0px"
	 viewBox="0 0 1108.8 693.9" style="enable-background:new 0 0 1108.8 693.9;" xml:space="preserve">
<style type="text/css">
	.st0{fill:none;stroke:#000000;stroke-width:9.896860e-04;stroke-miterlimit:2.6131;}
	.st1{fill:none;stroke:#000000;stroke-width:1.000000e-03;}
	.st2{fill:none;stroke:#000000;stroke-width:1.000000e-03;stroke-miterlimit:10;}
</style>
<g>
	<polygon class="st0" points="368.1,398.6 538.6,398.6 538.6,499.1 368.1,499.1 368.1,398.6 	"/>
	<polygon class="st1" points="333,602.1 351.4,602.1 351.4,602.1 351.4,590.5 347.8,590.5 347.8,584.8 351.4,584.8 351.4,576.3 
		358.5,576.3 358.5,584.8 362,584.8 362,590.5 358.5,590.5 358.5,602.1 358.5,602.1 376.9,602.1 376.9,602.2 376.9,610.7 
		437.1,610.7 437.1,602.2 468.3,602.2 468.3,610.7 528.4,610.7 528.4,602.2 528.4,602.1 546.9,602.1 546.9,602.2 546.9,590.5 
		543.3,590.5 543.3,584.8 546.9,584.8 546.9,576.4 554,576.4 554,584.8 557.5,584.8 557.5,590.5 554,590.5 554,602.2 554,602.1 
		572.4,602.1 572.4,602.2 572.4,610.7 578.8,610.7 578.8,560.3 587.3,560.3 587.3,538.7 576.8,538.7 576.8,531.6 587.3,531.6 
		587.3,510 578.8,510 578.8,478.8 587.3,478.8 587.3,457 576.8,457 576.8,450 587.3,450 587.3,428.5 578.8,428.5 578.8,378.2 
		572.4,378.2 572.4,386.7 572.4,386.7 553.9,386.7 553.9,386.7 553.9,398.3 557.5,398.3 557.5,404.1 553.9,404.1 553.9,412.5 
		546.8,412.5 546.8,404.1 543.3,404.1 543.3,398.3 546.8,398.3 546.8,386.7 546.8,386.7 528.4,386.7 528.4,386.7 528.4,378.2 
		468.3,378.2 468.3,386.7 437.1,386.7 437.1,378.2 376.9,378.2 376.9,386.7 358.4,386.7 358.4,386.7 358.4,398.3 362,398.3 
		362,404.1 358.4,404.1 358.4,412.5 351.4,412.5 351.4,404.1 347.8,404.1 347.8,398.3 351.4,398.3 351.4,386.7 351.4,386.7 
		333,386.7 333,378.2 326.5,378.2 326.5,428.5 318,428.5 318,450 328.5,450 328.5,457 318,457 318,478.8 326.5,478.8 326.5,510 
		318,510 318,531.6 328.5,531.6 328.5,538.7 318,538.7 318,560.3 326.5,560.3 326.5,610.7 333,610.7 333,602.2 	"/>
</g>
<polygon class="st1" points="823.9,301.2 823.9,320.2 823.9,320.2 832.4,320.2 832.4,356.8 817.5,356.8 817.5,365.3 798.9,365.3 
	798.9,354.8 791.5,354.8 791.5,365.3 773.6,365.3 773.6,356.8 713.3,356.8 713.3,365.3 682.2,365.3 682.2,356.8 622.2,356.8 
	622.2,365.3 603.8,365.3 603.8,354.8 596.1,354.8 596.1,365.3 578.2,365.3 578.2,356.8 563.1,356.8 563.1,320.2 571.6,320.2 
	571.6,320.2 571.6,301.2 571.6,301.2 583.2,301.2 583.2,304.8 589,304.8 589,301.2 597.4,301.2 597.4,294.1 589,294.1 589,290.6 
	583.2,290.6 583.2,294.1 571.6,294.1 571.6,294.1 571.6,275.2 571.6,275.2 563.1,275.2 563.1,244 571.6,244 571.6,212.8 
	563.1,212.8 563.1,181.6 571.6,181.6 571.6,150.4 563.1,150.4 563.1,119.3 571.6,119.3 571.6,100.3 571.6,100.3 583.2,100.3 
	583.2,103.8 589,103.8 589,100.3 597.4,100.3 597.4,93.2 589,93.2 589,89.6 583.2,89.6 583.2,93.2 571.6,93.2 571.6,93.2 
	571.6,74.2 571.6,74.2 563.1,74.2 563.1,37.6 578.1,37.6 578.1,29.1 596.1,29.1 596.1,39.6 603.8,39.6 603.8,29.1 622,29.1 
	622,37.6 682.2,37.6 682.2,29.1 713.3,29.1 713.3,37.6 773.5,37.6 773.5,29.1 791.5,29.1 791.5,39.6 798.9,39.6 798.9,29.1 
	817.5,29.1 817.5,37.6 832.4,37.6 832.4,74.2 823.9,74.2 823.9,93.2 823.9,93.2 812.3,93.2 812.3,89.6 806.5,89.6 806.5,93.2 
	798.1,93.2 798.1,100.2 806.5,100.2 806.5,103.8 812.3,103.8 812.3,100.2 823.9,100.2 823.9,100.2 823.9,119.3 832.4,119.3 
	832.4,150.4 823.9,150.4 823.9,181.6 832.4,181.6 832.4,212.8 823.9,212.8 823.9,244 832.4,244 832.4,275.2 823.9,275.2 
	823.9,275.2 823.9,294.1 823.9,294.1 812.3,294.1 812.3,290.6 806.5,290.6 806.5,294.1 798.1,294.1 798.1,301.2 806.5,301.2 
	806.5,304.8 812.3,304.8 812.3,301.2 823.9,301.2 "/>
<polygon class="st1" points="947.8,356.8 947.8,365.3 979,365.3 979,356.8 979,356.8 1000.6,356.8 1000.6,345.2 997,345.2 
	997,339.4 1000.6,339.4 1000.6,331 1007.7,331 1007.7,339.4 1011.2,339.4 1011.2,345.2 1007.7,345.2 1007.7,356.8 1029.3,356.8 
	1029.3,356.8 1029.3,365.3 1071.1,365.3 1071.1,320.2 1079.6,320.2 1079.6,302.9 1069.1,302.9 1069.1,294.1 1079.6,294.1 
	1079.6,275.2 1071.1,275.2 1071.1,244 1079.6,244 1079.6,212.8 1071.1,212.8 1071.1,181.6 1079.6,181.6 1079.6,150.4 1071.1,150.4 
	1071.1,119.3 1079.6,119.3 1079.6,100.3 1069.1,100.3 1069.1,93.2 1079.6,93.2 1079.6,74.2 1071.1,74.2 1071.1,29.1 1029.3,29.1 
	1029.3,37.6 1007.7,37.6 1007.7,49.2 1011.2,49.2 1011.2,55 1007.7,55 1007.7,63.4 1000.6,63.4 1000.6,55 997,55 997,49.2 
	1000.6,49.2 1000.6,37.6 979,37.6 979,29.1 947.8,29.1 947.8,37.6 947.8,37.6 926.1,37.6 926.1,49.2 929.7,49.2 929.7,55 926.1,55 
	926.1,63.4 919.1,63.4 919.1,55 915.5,55 915.5,49.2 919.1,49.2 919.1,37.6 897.4,37.6 897.5,37.6 897.5,29.1 855.6,29.1 
	855.6,74.2 847.1,74.2 847.1,93.2 857.6,93.2 857.6,100.3 847.1,100.3 847.1,119.3 855.6,119.3 855.6,150.4 847.1,150.4 
	847.1,181.6 855.6,181.6 855.6,212.8 847.1,212.8 847.1,244 855.6,244 855.6,275.2 847.1,275.2 847.1,294.1 857.6,294.1 
	857.6,302.9 847.1,302.9 847.1,320.2 855.6,320.2 855.6,365.3 897.5,365.3 897.5,356.8 897.5,356.7 919.1,356.7 919.1,345.1 
	915.5,345.1 915.5,339.4 919.1,339.4 919.1,330.9 926.2,330.9 926.2,339.4 929.7,339.4 929.7,345.1 926.2,345.1 926.2,356.7 
	947.8,356.7 "/>
<path class="st2" d="M878.2,280.4c1.6,17.6,19.3,31.4,41,31.4s39.3-13.8,41-31.4h0.1v-73.8c0-18.8-18.4-34-41.1-34
	c-22.7,0-41.1,15.2-41.1,34v73.8H878.2z"/>
<polygon class="st1" points="47.5,602.1 65.9,602.1 65.9,602.1 65.9,590.5 62.4,590.5 62.4,584.8 65.9,584.8 65.9,576.3 73,576.3 
	73,584.8 76.6,584.8 76.6,590.5 73,590.5 73,602.1 73,602.1 91.4,602.1 91.4,602.2 91.4,610.7 151.6,610.7 151.6,602.2 182.8,602.2 
	182.8,610.7 243,610.7 243,602.2 243,602.1 261.5,602.1 261.5,602.2 261.5,590.5 257.9,590.5 257.9,584.8 261.5,584.8 261.5,576.4 
	268.5,576.4 268.5,584.8 272.1,584.8 272.1,590.5 268.5,590.5 268.5,602.2 268.5,602.1 286.9,602.1 286.9,602.2 286.9,610.7 
	293.4,610.7 293.4,560.3 301.9,560.3 301.9,539.4 291.4,539.4 291.4,530.9 301.9,530.9 301.9,510 293.4,510 293.4,478.8 
	301.9,478.8 301.9,457.9 301.9,457.9 301.9,449.4 301.9,449.4 301.9,428.5 293.4,428.5 293.4,378.2 286.9,378.2 286.9,386.7 
	286.9,386.7 268.5,386.7 268.5,386.7 268.5,398.3 272,398.3 272,404.1 268.5,404.1 268.5,412.5 261.4,412.5 261.4,404.1 
	257.9,404.1 257.9,398.3 261.4,398.3 261.4,386.7 261.4,386.7 243,386.7 243,386.7 243,378.2 182.8,378.2 182.8,386.7 151.6,386.7 
	151.6,378.2 91.4,378.2 91.4,386.7 73,386.7 73,386.7 73,398.3 76.5,398.3 76.5,404.1 73,404.1 73,412.5 65.9,412.5 65.9,404.1 
	62.4,404.1 62.4,398.3 65.9,398.3 65.9,386.7 65.9,386.7 47.5,386.7 47.5,378.2 41.1,378.2 41.1,428.5 32.6,428.5 32.6,449.4 
	43.1,449.4 43.1,457.9 32.6,457.9 32.6,478.8 41.1,478.8 41.1,510 32.6,510 32.6,530.9 43.1,530.9 43.1,539.4 32.6,539.4 
	32.6,560.3 41.1,560.3 41.1,610.7 47.5,610.7 47.5,602.2 "/>
<path class="st2" d="M183.6,498.3h-32.8c-4.6,0-8.2-3.7-8.2-8.2v-44.9c0-4.6,3.7-8.2,8.2-8.2h32.8c4.6,0,8.2,3.7,8.2,8.2V490
	C191.9,494.6,188.2,498.3,183.6,498.3z"/>
<polygon class="st1" points="397,356.9 418.6,356.9 418.6,365.4 449.8,365.4 449.8,356.9 449.8,356.9 471.4,356.9 471.4,345.2 
	467.9,345.2 467.9,339.5 471.4,339.5 471.4,331.1 478.5,331.1 478.5,339.5 482.1,339.5 482.1,345.2 478.5,345.2 478.5,356.9 
	500.1,356.9 500.1,356.9 500.1,365.4 542,365.4 542,320.3 550.5,320.3 550.5,301.4 540,301.4 540,294.2 550.5,294.2 550.5,275.2 
	542,275.2 542,244 550.5,244 550.5,212.9 542,212.9 542,181.7 550.5,181.7 550.5,150.5 542,150.5 542,119.3 550.5,119.3 
	550.5,100.6 540,100.6 540,93.2 550.5,93.2 550.5,74.2 542,74.2 542,29.2 500.1,29.2 500.1,37.7 500.1,37.7 478.5,37.7 478.5,49.3 
	482.1,49.3 482.1,55.1 478.5,55.1 478.5,63.5 471.4,63.5 471.4,55.1 467.9,55.1 467.9,49.3 471.4,49.3 471.4,37.7 449.8,37.7 
	449.8,37.7 449.8,29.2 418.6,29.2 418.6,37.7 418.6,37.7 397,37.7 397,49.3 400.6,49.3 400.6,55 397,55 397,63.5 389.9,63.5 
	389.9,55 386.4,55 386.4,49.3 389.9,49.3 389.9,37.7 368.3,37.7 368.3,37.7 368.3,29.2 326.5,29.2 326.5,74.2 318,74.2 318,93.2 
	328.5,93.2 328.5,100.6 318,100.6 318,119.3 326.5,119.3 326.5,150.5 318,150.5 318,181.7 326.5,181.7 326.5,212.9 318,212.9 
	318,244 326.5,244 326.5,275.2 318,275.2 318,294.2 328.5,294.2 328.5,301.4 318,301.4 318,320.3 326.5,320.3 326.5,365.4 
	368.3,365.4 368.3,356.9 389.9,356.9 "/>
<path class="st2" d="M372.2,342.5H387c7.5,0,13.6-6.1,13.6-13.6V179c0-7.5-6.1-13.6-13.6-13.6h-14.9c-7.5,0-13.6,6.1-13.6,13.6
	v149.9C358.5,336.4,364.6,342.5,372.2,342.5z"/>
<g>
	<rect x="87.9" y="45.1" class="st2" width="158.7" height="243.8"/>
	<g>
		<polygon class="st1" points="296.9,301.2 296.9,320.2 296.9,320.2 305.4,320.2 305.4,356.8 290.4,356.8 290.4,365.3 272.2,365.3 
			272.2,354.8 264.8,354.8 264.8,365.3 246.5,365.3 246.5,356.8 186.3,356.8 186.3,365.3 155.1,365.3 155.1,356.8 94.9,356.8 
			94.9,365.3 76.8,365.3 76.8,354.8 69.3,354.8 69.3,365.3 51,365.3 51,356.8 36.1,356.8 36.1,320.2 44.6,320.2 44.6,320.2 
			44.6,301.2 44.6,301.2 56.2,301.2 56.2,304.7 61.9,304.7 61.9,301.2 70.4,301.2 70.4,294.1 61.9,294.1 61.9,290.6 56.2,290.6 
			56.2,294.1 44.6,294.1 44.6,294.1 44.6,275.1 44.6,275.1 36.1,275.1 36.1,243.9 44.6,243.9 44.6,212.8 36.1,212.8 36.1,181.6 
			44.6,181.6 44.6,150.4 36.1,150.4 36.1,119.2 44.6,119.2 44.6,100.2 44.6,100.2 56.2,100.2 56.2,103.8 61.9,103.8 61.9,100.2 
			70.4,100.2 70.4,93.2 61.9,93.2 61.9,89.6 56.2,89.6 56.2,93.2 44.6,93.2 44.6,93.2 44.6,74.1 44.6,74.1 36.1,74.1 36.1,37.6 
			51,37.6 51,29.1 69.3,29.1 69.3,39.6 76.8,39.6 76.8,29.1 94.9,29.1 94.9,37.6 155.1,37.6 155.1,29.1 186.3,29.1 186.3,37.6 
			246.5,37.6 246.5,29.1 264.8,29.1 264.8,39.6 272.2,39.6 272.2,29.1 290.4,29.1 290.4,37.6 305.4,37.6 305.4,74.1 296.9,74.1 
			296.9,93.1 296.9,93.1 285.2,93.1 285.2,89.6 279.5,89.6 279.5,93.1 271.1,93.1 271.1,100.2 279.5,100.2 279.5,103.8 285.2,103.8 
			285.2,100.2 296.9,100.2 296.9,100.2 296.9,119.2 305.4,119.2 305.4,150.4 296.9,150.4 296.9,181.6 305.4,181.6 305.4,212.8 
			296.9,212.8 296.9,243.9 305.4,243.9 305.4,275.1 296.9,275.1 296.9,275.1 296.9,294.1 296.9,294.1 285.2,294.1 285.2,290.6 
			279.5,290.6 279.5,294.1 271.1,294.1 271.1,301.2 279.5,301.2 279.5,304.7 285.2,304.7 285.2,301.2 296.9,301.2 		"/>
	</g>
</g>
<circle class="st2" cx="750" cy="306.5" r="5"/>
<circle class="st2" cx="750" cy="293.7" r="5"/>
<circle class="st2" cx="750" cy="280.9" r="5"/>
<circle class="st2" cx="750" cy="268.1" r="5"/>
<circle class="st2" cx="750" cy="255.2" r="5"/>
<circle class="st2" cx="750" cy="242.4" r="5"/>
<circle class="st2" cx="750" cy="229.6" r="5"/>
<circle class="st2" cx="750" cy="216.8" r="5"/>
<circle class="st2" cx="750" cy="204" r="5"/>
<circle class="st2" cx="750" cy="191.1" r="5"/>
<circle class="st2" cx="750" cy="178.3" r="5"/>
<circle class="st2" cx="750" cy="165.5" r="5"/>
<circle class="st2" cx="750" cy="152.7" r="5"/>
<circle class="st2" cx="750" cy="139.8" r="5"/>
<circle class="st2" cx="750" cy="127" r="5"/>
<circle class="st2" cx="750" cy="114.2" r="5"/>
<circle class="st2" cx="750" cy="101.4" r="5"/>
<circle class="st2" cx="750" cy="88.6" r="5"/>
<circle class="st2" cx="750" cy="75.7" r="5"/>
<circle class="st2" cx="750" cy="62.9" r="5"/>
<circle class="st2" cx="735.7" cy="306.5" r="5"/>
<circle class="st2" cx="735.7" cy="293.7" r="5"/>
<circle class="st2" cx="735.7" cy="280.9" r="5"/>
<circle class="st2" cx="735.7" cy="268.1" r="5"/>
<circle class="st2" cx="735.7" cy="255.2" r="5"/>
<circle class="st2" cx="735.7" cy="242.4" r="5"/>
<circle class="st2" cx="735.7" cy="229.6" r="5"/>
<circle class="st2" cx="735.7" cy="216.8" r="5"/>
<circle class="st2" cx="735.7" cy="204" r="5"/>
<circle class="st2" cx="735.7" cy="191.1" r="5"/>
<circle class="st2" cx="735.7" cy="178.3" r="5"/>
<circle class="st2" cx="735.7" cy="165.5" r="5"/>
<circle class="st2" cx="735.7" cy="152.7" r="5"/>
<circle class="st2" cx="735.7" cy="139.8" r="5"/>
<circle class="st2" cx="735.7" cy="127" r="5"/>
<circle class="st2" cx="735.7" cy="114.2" r="5"/>
<circle class="st2" cx="735.7" cy="101.4" r="5"/>
<circle class="st2" cx="735.7" cy="88.6" r="5"/>
<circle class="st2" cx="735.7" cy="75.7" r="5"/>
<circle class="st2" cx="735.7" cy="62.9" r="5"/>
<circle class="st2" cx="721.4" cy="306.5" r="5"/>
<circle class="st2" cx="721.4" cy="293.7" r="5"/>
<circle class="st2" cx="721.4" cy="280.9" r="5"/>
<circle class="st2" cx="721.4" cy="268.1" r="5"/>
<circle class="st2" cx="721.4" cy="255.2" r="5"/>
<circle class="st2" cx="721.4" cy="242.4" r="5"/>
<circle class="st2" cx="721.4" cy="229.6" r="5"/>
<circle class="st2" cx="721.4" cy="216.8" r="5"/>
<circle class="st2" cx="721.4" cy="204" r="5"/>
<circle class="st2" cx="721.4" cy="191.1" r="5"/>
<circle class="st2" cx="721.4" cy="178.3" r="5"/>
<circle class="st2" cx="721.4" cy="165.5" r="5"/>
<circle class="st2" cx="721.4" cy="152.7" r="5"/>
<circle class="st2" cx="721.4" cy="139.8" r="5"/>
<circle class="st2" cx="721.4" cy="127" r="5"/>
<circle class="st2" cx="721.4" cy="114.2" r="5"/>
<circle class="st2" cx="721.4" cy="101.4" r="5"/>
<circle class="st2" cx="721.4" cy="88.6" r="5"/>
<circle class="st2" cx="721.4" cy="75.7" r="5"/>
<circle class="st2" cx="721.4" cy="62.9" r="5"/>
<circle class="st2" cx="707.1" cy="306.5" r="5"/>
<circle class="st2" cx="707.1" cy="293.7" r="5"/>
<circle class="st2" cx="707.1" cy="280.9" r="5"/>
<circle class="st2" cx="707.1" cy="268.1" r="5"/>
<circle class="st2" cx="707.1" cy="255.2" r="5"/>
<circle class="st2" cx="707.1" cy="242.4" r="5"/>
<circle class="st2" cx="707.1" cy="229.6" r="5"/>
<circle class="st2" cx="707.1" cy="216.8" r="5"/>
<circle class="st2" cx="707.1" cy="204" r="5"/>
<circle class="st2" cx="707.1" cy="191.1" r="5"/>
<circle class="st2" cx="707.1" cy="178.3" r="5"/>
<circle class="st2" cx="707.1" cy="165.5" r="5"/>
<circle class="st2" cx="707.1" cy="152.7" r="5"/>
<circle class="st2" cx="707.1" cy="139.8" r="5"/>
<circle class="st2" cx="707.1" cy="127" r="5"/>
<circle class="st2" cx="707.1" cy="114.2" r="5"/>
<circle class="st2" cx="707.1" cy="101.4" r="5"/>
<circle class="st2" cx="707.1" cy="88.6" r="5"/>
<circle class="st2" cx="707.1" cy="75.7" r="5"/>
<circle class="st2" cx="707.1" cy="62.9" r="5"/>
<circle class="st2" cx="692.8" cy="306.5" r="5"/>
<circle class="st2" cx="692.8" cy="293.7" r="5"/>
<circle class="st2" cx="692.8" cy="280.9" r="5"/>
<circle class="st2" cx="692.8" cy="268.1" r="5"/>
<circle class="st2" cx="692.8" cy="255.2" r="5"/>
<circle class="st2" cx="692.8" cy="242.4" r="5"/>
<circle class="st2" cx="692.8" cy="229.6" r="5"/>
<circle class="st2" cx="692.8" cy="216.8" r="5"/>
<circle class="st2" cx="692.8" cy="204" r="5"/>
<circle class="st2" cx="692.8" cy="191.1" r="5"/>
<circle class="st2" cx="692.8" cy="178.3" r="5"/>
<circle class="st2" cx="692.8" cy="165.5" r="5"/>
<circle class="st2" cx="692.8" cy="152.7" r="5"/>
<circle class="st2" cx="692.8" cy="139.8" r="5"/>
<circle class="st2" cx="692.8" cy="127" r="5"/>
<circle class="st2" cx="692.8" cy="114.2" r="5"/>
<circle class="st2" cx="692.8" cy="101.4" r="5"/>
<circle class="st2" cx="692.8" cy="88.6" r="5"/>
<circle class="st2" cx="692.8" cy="75.7" r="5"/>
<circle class="st2" cx="692.8" cy="62.9" r="5"/>
<circle class="st2" cx="678.5" cy="306.5" r="5"/>
<circle class="st2" cx="678.5" cy="293.7" r="5"/>
<circle class="st2" cx="678.5" cy="280.9" r="5"/>
<circle class="st2" cx="678.5" cy="268.1" r="5"/>
<circle class="st2" cx="678.5" cy="255.2" r="5"/>
<circle class="st2" cx="678.5" cy="242.4" r="5"/>
<circle class="st2" cx="678.5" cy="229.6" r="5"/>
<circle class="st2" cx="678.5" cy="216.8" r="5"/>
<circle class="st2" cx="678.5" cy="204" r="5"/>
<circle class="st2" cx="678.5" cy="191.1" r="5"/>
<circle class="st2" cx="678.5" cy="178.3" r="5"/>
<circle class="st2" cx="678.5" cy="165.5" r="5"/>
<circle class="st2" cx="678.5" cy="152.7" r="5"/>
<circle class="st2" cx="678.5" cy="139.8" r="5"/>
<circle class="st2" cx="678.5" cy="127" r="5"/>
<circle class="st2" cx="678.5" cy="114.2" r="5"/>
<circle class="st2" cx="678.5" cy="101.4" r="5"/>
<circle class="st2" cx="678.5" cy="88.6" r="5"/>
<circle class="st2" cx="678.5" cy="75.7" r="5"/>
<circle class="st2" cx="678.5" cy="62.9" r="5"/>
<circle class="st2" cx="664.2" cy="306.5" r="5"/>
<circle class="st2" cx="664.2" cy="293.7" r="5"/>
<circle class="st2" cx="664.2" cy="280.9" r="5"/>
<circle class="st2" cx="664.2" cy="268.1" r="5"/>
<circle class="st2" cx="664.2" cy="255.2" r="5"/>
<circle class="st2" cx="664.2" cy="242.4" r="5"/>
<circle class="st2" cx="664.2" cy="229.6" r="5"/>
<circle class="st2" cx="664.2" cy="216.8" r="5"/>
<circle class="st2" cx="664.2" cy="204" r="5"/>
<circle class="st2" cx="664.2" cy="191.1" r="5"/>
<circle class="st2" cx="664.2" cy="178.3" r="5"/>
<circle class="st2" cx="664.2" cy="165.5" r="5"/>
<circle class="st2" cx="664.2" cy="152.7" r="5"/>
<circle class="st2" cx="664.2" cy="139.8" r="5"/>
<circle class="st2" cx="664.2" cy="127" r="5"/>
<circle class="st2" cx="664.2" cy="114.2" r="5"/>
<circle class="st2" cx="664.2" cy="101.4" r="5"/>
<circle class="st2" cx="664.2" cy="88.6" r="5"/>
<circle class="st2" cx="664.2" cy="75.7" r="5"/>
<circle class="st2" cx="664.2" cy="62.9" r="5"/>
<circle class="st2" cx="649.9" cy="306.5" r="5"/>
<circle class="st2" cx="649.9" cy="293.7" r="5"/>
<circle class="st2" cx="649.9" cy="280.9" r="5"/>
<circle class="st2" cx="649.9" cy="268.1" r="5"/>
<circle class="st2" cx="649.9" cy="255.2" r="5"/>
<circle class="st2" cx="649.9" cy="242.4" r="5"/>
<circle class="st2" cx="649.9" cy="229.6" r="5"/>
<circle class="st2" cx="649.9" cy="216.8" r="5"/>
<circle class="st2" cx="649.9" cy="204" r="5"/>
<circle class="st2" cx="649.9" cy="191.1" r="5"/>
<circle class="st2" cx="649.9" cy="178.3" r="5"/>
<circle class="st2" cx="649.9" cy="165.5" r="5"/>
<circle class="st2" cx="649.9" cy="152.7" r="5"/>
<circle class="st2" cx="649.9" cy="139.8" r="5"/>
<circle class="st2" cx="649.9" cy="127" r="5"/>
<circle class="st2" cx="649.9" cy="114.2" r="5"/>
<circle class="st2" cx="649.9" cy="101.4" r="5"/>
<circle class="st2" cx="649.9" cy="88.6" r="5"/>
<circle class="st2" cx="649.9" cy="75.7" r="5"/>
<circle class="st2" cx="649.9" cy="62.9" r="5"/>
<rect x="419.6" y="276.5" class="st2" width="8.5" height="42.5"/>
<rect x="419.6" y="175.9" class="st2" width="8.5" height="42.5"/>
<rect x="969.2" y="75.5" class="st2" width="8.5" height="42.5"/>
<rect x="969.2" y="176.1" class="st2" width="8.5" height="42.5"/>
<rect x="419.6" y="75.3" class="st2" width="8.5" height="42.5"/>
<rect x="969.2" y="276.7" class="st2" width="8.5" height="42.5"/>
<g>
	<path d="M512.2,316.7v-4.1h1.8v6.4h-9.7v-2.3H512.2z"/>
	<path d="M504.3,303.7h6.3c0.7,0,1.3,0.2,1.9,0.5c0.5,0.3,0.9,0.7,1.2,1.3c0.3,0.6,0.4,1.2,0.4,2c0,1.2-0.3,2.1-0.9,2.8
		s-1.4,1-2.5,1h-6.4V309h6.4c1.1,0,1.6-0.5,1.6-1.5c0-0.5-0.1-0.8-0.4-1.1c-0.3-0.2-0.7-0.4-1.3-0.4h-6.3V303.7z"/>
	<path d="M511.4,296.7c-0.3,0-0.6,0.1-0.8,0.4c-0.2,0.2-0.4,0.7-0.6,1.3c-0.2,0.6-0.4,1.1-0.6,1.5c-0.6,1.3-1.5,1.9-2.5,1.9
		c-0.5,0-1-0.2-1.4-0.5c-0.4-0.3-0.7-0.8-1-1.3c-0.2-0.6-0.3-1.2-0.3-1.9c0-0.7,0.1-1.3,0.4-1.9c0.2-0.6,0.6-1,1.1-1.3
		c0.5-0.3,1-0.5,1.6-0.5v2.3c-0.4,0-0.7,0.1-0.9,0.4c-0.2,0.2-0.3,0.6-0.3,1c0,0.4,0.1,0.7,0.3,1c0.2,0.2,0.4,0.4,0.7,0.4
		c0.2,0,0.5-0.1,0.7-0.4c0.2-0.3,0.4-0.7,0.6-1.4c0.2-0.7,0.4-1.2,0.7-1.6c0.6-1,1.4-1.6,2.5-1.6c0.8,0,1.5,0.3,2,1
		c0.5,0.6,0.7,1.5,0.7,2.6c0,0.8-0.1,1.5-0.4,2.1c-0.3,0.6-0.7,1.1-1.2,1.4c-0.5,0.3-1.1,0.5-1.7,0.5v-2.3c0.5,0,0.9-0.1,1.1-0.4
		c0.2-0.3,0.4-0.7,0.4-1.3c0-0.4-0.1-0.7-0.2-0.9S511.7,296.7,511.4,296.7z"/>
	<path d="M514,284.5v2.3h-4v3.4h4v2.3h-9.7v-2.3h3.8v-3.4h-3.8v-2.3H514z"/>
	<path d="M510.5,278.9v1.3h3.4v2.3h-9.7v-3.8c0-1.1,0.3-2,0.8-2.7c0.5-0.6,1.2-1,2.2-1c0.7,0,1.2,0.1,1.7,0.4
		c0.4,0.3,0.8,0.7,1.1,1.3l3.9-2h0.1v2.5L510.5,278.9z M508.7,280.2v-1.5c0-0.4-0.1-0.8-0.3-1c-0.2-0.2-0.6-0.3-1-0.3
		s-0.7,0.1-1,0.3c-0.2,0.2-0.4,0.6-0.4,1v1.5H508.7z"/>
	<path d="M509.3,264.9c0.9,0,1.8,0.2,2.5,0.5c0.7,0.4,1.3,0.8,1.7,1.5c0.4,0.6,0.6,1.4,0.6,2.2c0,0.8-0.2,1.6-0.6,2.2
		c-0.4,0.6-0.9,1.1-1.6,1.5c-0.7,0.4-1.5,0.5-2.4,0.6h-0.5c-0.9,0-1.8-0.2-2.5-0.5c-0.7-0.3-1.3-0.8-1.7-1.5
		c-0.4-0.6-0.6-1.4-0.6-2.2c0-0.8,0.2-1.6,0.6-2.2c0.4-0.6,0.9-1.1,1.7-1.5c0.7-0.4,1.5-0.5,2.5-0.5H509.3z M508.9,267.2
		c-1,0-1.7,0.2-2.2,0.5c-0.5,0.3-0.7,0.8-0.7,1.4c0,1.2,0.9,1.8,2.6,1.9l0.7,0c0.9,0,1.7-0.2,2.2-0.5c0.5-0.3,0.8-0.8,0.8-1.4
		c0-0.6-0.3-1-0.8-1.4c-0.5-0.3-1.2-0.5-2.2-0.5H508.9z"/>
	<path d="M509.3,254.9c0.9,0,1.8,0.2,2.5,0.5c0.7,0.4,1.3,0.8,1.7,1.5c0.4,0.6,0.6,1.4,0.6,2.2c0,0.8-0.2,1.6-0.6,2.2
		c-0.4,0.6-0.9,1.1-1.6,1.5s-1.5,0.5-2.4,0.6h-0.5c-0.9,0-1.8-0.2-2.5-0.5s-1.3-0.8-1.7-1.5c-0.4-0.6-0.6-1.4-0.6-2.2
		c0-0.8,0.2-1.6,0.6-2.2c0.4-0.6,0.9-1.1,1.7-1.5c0.7-0.4,1.5-0.5,2.5-0.5H509.3z M508.9,257.3c-1,0-1.7,0.2-2.2,0.5
		c-0.5,0.3-0.7,0.8-0.7,1.4c0,1.2,0.9,1.8,2.6,1.9l0.7,0c0.9,0,1.7-0.2,2.2-0.5c0.5-0.3,0.8-0.8,0.8-1.4c0-0.6-0.3-1-0.8-1.4
		c-0.5-0.3-1.2-0.5-2.2-0.5H508.9z"/>
	<path d="M504.3,250.1l6.7-2.2l-6.7-2.2v-3.1h9.7v2.3h-2.3l-4.6-0.2l6.9,2.3v1.5l-6.9,2.3l4.6-0.2h2.3v2.3h-9.7V250.1z"/>
	<path d="M508.4,228.7v1.2h3.2c0.3,0,0.5,0,0.6-0.1c0.1-0.1,0.2-0.3,0.2-0.6c0-0.2,0-0.4,0-0.6h1.6c0.1,0.4,0.2,0.8,0.2,1.3
		c0,0.8-0.2,1.3-0.5,1.7s-0.9,0.6-1.7,0.6h-3.5v1.4h5.6v2.2h-5.6v1.2h-1.6v-8.4H508.4z"/>
</g>
<g>
	<polygon class="st2" points="875.3,448.8 875.3,406.2 866.8,406.2 866.8,378.5 614.5,378.5 614.5,406.2 606,406.2 606,448.8 
		614.5,448.8 614.5,506.8 606,506.8 606,549.4 614.5,549.4 614.5,607.4 606,607.4 606,650 614.5,650 614.5,679.5 866.8,679.5 
		866.8,650 875.3,650 875.3,607.4 866.8,607.4 866.8,549.4 875.3,549.4 875.3,506.8 866.8,506.8 866.8,448.8 	"/>
	<g>
		<circle class="st2" cx="667.2" cy="388.1" r="3.9"/>
		<circle class="st2" cx="806.1" cy="388.1" r="3.9"/>
		<circle class="st2" cx="667.2" cy="552.5" r="3.9"/>
		<circle class="st2" cx="806.1" cy="552.5" r="3.9"/>
	</g>
</g>
<g>
	<path d="M206.9,321.1h-4.1v-1.8h6.4v9.7h-2.3V321.1z"/>
	<path d="M193.9,329v-6.3c0-0.7,0.2-1.3,0.5-1.9c0.3-0.5,0.7-0.9,1.3-1.2c0.6-0.3,1.2-0.4,2-0.4c1.2,0,2.1,0.3,2.8,0.9
		c0.7,0.6,1,1.4,1,2.5v6.4h-2.3v-6.4c0-1.1-0.5-1.6-1.5-1.6c-0.5,0-0.8,0.1-1.1,0.4c-0.2,0.3-0.4,0.7-0.4,1.3v6.3H193.9z"/>
	<path d="M186.9,321.9c0,0.3,0.1,0.6,0.4,0.8c0.2,0.2,0.7,0.4,1.3,0.6c0.6,0.2,1.1,0.4,1.5,0.6c1.3,0.6,1.9,1.5,1.9,2.5
		c0,0.5-0.2,1-0.5,1.4c-0.3,0.4-0.8,0.7-1.3,1c-0.6,0.2-1.2,0.3-1.9,0.3c-0.7,0-1.3-0.1-1.9-0.4c-0.6-0.2-1-0.6-1.3-1.1
		c-0.3-0.5-0.5-1-0.5-1.6h2.3c0,0.4,0.1,0.7,0.4,0.9c0.2,0.2,0.6,0.3,1,0.3c0.4,0,0.7-0.1,1-0.3c0.2-0.2,0.4-0.4,0.4-0.7
		c0-0.2-0.1-0.5-0.4-0.7c-0.3-0.2-0.7-0.4-1.4-0.6c-0.7-0.2-1.2-0.4-1.6-0.7c-1-0.6-1.6-1.4-1.6-2.5c0-0.8,0.3-1.5,1-2
		c0.6-0.5,1.5-0.7,2.6-0.7c0.8,0,1.5,0.1,2.1,0.4c0.6,0.3,1.1,0.7,1.4,1.2c0.3,0.5,0.5,1.1,0.5,1.7h-2.3c0-0.5-0.1-0.9-0.4-1.1
		c-0.3-0.2-0.7-0.4-1.3-0.4c-0.4,0-0.7,0.1-0.9,0.2C187,321.4,186.9,321.6,186.9,321.9z"/>
	<path d="M174.7,319.3h2.3v4h3.4v-4h2.3v9.7h-2.3v-3.8H177v3.8h-2.3V319.3z"/>
	<path d="M169.1,322.8h1.3v-3.4h2.3v9.7h-3.8c-1.1,0-2-0.3-2.7-0.8c-0.6-0.5-1-1.2-1-2.2c0-0.7,0.1-1.2,0.4-1.7
		c0.3-0.4,0.7-0.8,1.3-1.1l-2-3.9v-0.1h2.5L169.1,322.8z M170.4,324.6h-1.5c-0.4,0-0.8,0.1-1,0.3c-0.2,0.2-0.3,0.6-0.3,1
		c0,0.4,0.1,0.7,0.3,1c0.2,0.2,0.6,0.4,1,0.4h1.5V324.6z"/>
	<path d="M155.1,324c0-0.9,0.2-1.8,0.5-2.5c0.4-0.7,0.8-1.3,1.5-1.7s1.4-0.6,2.2-0.6s1.6,0.2,2.2,0.6c0.6,0.4,1.1,0.9,1.5,1.6
		c0.4,0.7,0.5,1.5,0.6,2.4v0.5c0,0.9-0.2,1.8-0.5,2.5c-0.3,0.7-0.8,1.3-1.5,1.7c-0.6,0.4-1.4,0.6-2.2,0.6c-0.8,0-1.6-0.2-2.2-0.6
		c-0.6-0.4-1.1-0.9-1.5-1.7c-0.4-0.7-0.5-1.5-0.5-2.5V324z M157.4,324.4c0,1,0.2,1.7,0.5,2.2c0.3,0.5,0.8,0.7,1.4,0.7
		c1.2,0,1.8-0.9,1.9-2.6l0-0.7c0-0.9-0.2-1.7-0.5-2.2c-0.3-0.5-0.8-0.8-1.4-0.8c-0.6,0-1,0.3-1.4,0.8c-0.3,0.5-0.5,1.2-0.5,2.2
		V324.4z"/>
	<path d="M145.1,324c0-0.9,0.2-1.8,0.5-2.5c0.4-0.7,0.8-1.3,1.5-1.7s1.4-0.6,2.2-0.6c0.8,0,1.6,0.2,2.2,0.6c0.6,0.4,1.1,0.9,1.5,1.6
		c0.4,0.7,0.5,1.5,0.6,2.4v0.5c0,0.9-0.2,1.8-0.5,2.5s-0.8,1.3-1.5,1.7c-0.6,0.4-1.4,0.6-2.2,0.6c-0.8,0-1.6-0.2-2.2-0.6
		c-0.6-0.4-1.1-0.9-1.5-1.7c-0.4-0.7-0.5-1.5-0.5-2.5V324z M147.5,324.4c0,1,0.2,1.7,0.5,2.2c0.3,0.5,0.8,0.7,1.4,0.7
		c1.2,0,1.8-0.9,1.9-2.6l0-0.7c0-0.9-0.2-1.7-0.5-2.2c-0.3-0.5-0.8-0.8-1.4-0.8c-0.6,0-1,0.3-1.4,0.8c-0.3,0.5-0.5,1.2-0.5,2.2
		V324.4z"/>
	<path d="M140.3,329l-2.2-6.7L136,329h-3.1v-9.7h2.3v2.3l-0.2,4.6l2.3-6.9h1.5l2.3,6.9l-0.2-4.6v-2.3h2.3v9.7H140.3z"/>
	<path d="M118.9,324.9h1.2v-3.2c0-0.3,0-0.5-0.1-0.6c-0.1-0.1-0.3-0.2-0.6-0.2c-0.2,0-0.4,0-0.6,0v-1.6c0.4-0.1,0.8-0.2,1.3-0.2
		c0.8,0,1.3,0.2,1.7,0.5c0.4,0.4,0.6,0.9,0.6,1.7v3.5h1.4v-5.6h2.2v5.6h1.2v1.6h-8.4V324.9z"/>
</g>
</svg>
