<?xml version="1.0" encoding="UTF-8"?>

<svg xmlns="http://www.w3.org/2000/svg" version="1.1"
    xmlns:freecad="http://www.freecadweb.org/wiki/index.php?title=Svg_Namespace"
	width="841mm"
	height="594mm"
	viewBox="0 0 841 594">
	<!-- Working space 0 0 841 594 -->
	<defs>
		<radialGradient
			id="radialGradient3661"
			gradientUnits="userSpaceOnUse"
			cy="29.149"
			cx="282.65"
			gradientTransform="matrix(.14777 .23089 -.24680 .15795 -26.318 -62.617)"
			r="19.571">
				<stop stop-color="#71b2f8" offset="0"/>
				<stop stop-color="#002795" offset="1"/>
		</radialGradient>
		<radialGradient
			id="radialGradient3817"
			gradientUnits="userSpaceOnUse"
			cy="33.9"
			cx="270.58"
			gradientTransform="matrix(.26631 .065024 -.17931 .73438 -60.668 -36.938)"
			r="19.571">
				<stop stop-color="#ff6d0f" offset="0"/>
				<stop stop-color="#ff1000" offset="1"/>
		</radialGradient>
	</defs>
	<!-- Set display:none to hide FreeCAD Logo -->
	<g
		style="display:inline"
		id="freecad-logo"
		transform="translate(791, 546) scale(2.5)"
		fill-rule="evenodd"
		stroke-width=".45621">
		<path d="m0.22811 0.22835v13.256h2.9558v-5.1876h2.09v-2.0452h-2.09v-2.2075h5.1486v-3.8087l-8.1044-0.0075z"
			stroke="#370700"
			fill="url(#radialGradient3817)"/>
		<path d="m13.386 4.1792-1.7193 0.98645-0.75925-0.26348-0.72439-1.8513-1.1395 0.05988-0.51976 1.9144-0.72743 0.34835-1.8143-0.79367-0.76632 0.85156 0.98645 1.7193-0.26957 0.75702-1.8513 0.72439 0.065967 1.1417 1.9144 0.51976 0.34835 0.72743-0.79976 1.8121 0.85156 0.76632 1.7193-0.98645 0.76311 0.27179 0.7183 1.8491 1.1478-0.06375 0.51367-1.9166 0.72743-0.34835 1.8182 0.80198 0.76632-0.85156-0.98645-1.7193 0.2657-0.76533 1.8491-0.7183-0.05766-1.1456-1.9166-0.51367-0.34835-0.72743 0.7959-1.8204-0.85156-0.76632zm-2.5751 2.8195 0.35295 0.20478 0.30579 0.27725 0.24481 0.33087 0.17611 0.36787 0.10354 0.39656 0.01715 0.4064-0.0587 0.4063-0.13396 0.38571-0.2131 0.35681-0.26894 0.30192-0.33087 0.24481-0.36787 0.17611-0.39656 0.10354-0.40863 0.02325-0.4063-0.0587-0.38571-0.13396-0.35681-0.2131-0.2997-0.27503-0.24703-0.32478-0.17611-0.36787-0.10132-0.40264-0.02324-0.40863 0.05869-0.4063 0.13396-0.38571 0.21087-0.35072 0.27116-0.30801 0.33087-0.24481 0.36787-0.17611 0.40264-0.10132 0.40641-0.01715 0.4063 0.05869 0.38571 0.13396z" 
		stroke="#000137"
		fill="url(#radialGradient3661)"/>
	</g>
<g id="Ortho_Bottom"
   transform="rotate(180,70,70) translate(70,70) scale(1,1)"
  >
<g   fill="none"
   stroke="rgb(0, 0, 0)"
   stroke-linecap="butt"
   stroke-linejoin="miter"
   stroke-width="0.350000"
   transform="scale(1,-1)"
  >
<path id= "1" d=" M 57 -47.5 L 43.5 -47.5 " />
<path id= "2" d=" M 60 34.85 L 56.3 34.85 " />
<path id= "3" d=" M 60 41.5 L 60 34.85 " />
<path id= "4" d=" M 56.3 34.85 L 56.3 32.15 " />
<path id= "5" d=" M 57 41.5 L 60 41.5 " />
<path id= "6" d=" M 56.3 32.15 L 60 32.15 " />
<path id= "7" d=" M 57 47.5 L 57 41.5 " />
<path id= "8" d=" M 60 32.15 L 60 25.5 " />
<path id= "9" d=" M 43.5 47.5 L 57 47.5 " />
<path id= "10" d=" M 60 25.5 L 57 25.5 " />
<path id= "11" d=" M 43.5 44.5 L 43.5 47.5 " />
<path id= "12" d=" M 57 25.5 L 57 5.5 " />
<path id= "13" d=" M 36.75 44.5 L 43.5 44.5 " />
<path id= "14" d=" M 57 5.5 L 60 5.5 " />
<path id= "15" d=" M 36.75 44.5 L 36.75 40.4 " />
<path id= "16" d=" M 60 5.5 L 60 -5.5 " />
<path id= "17" d=" M 36.75 40.4 L 38 40.4 " />
<path id= "18" d=" M 57 -5.5 L 60 -5.5 " />
<path id= "19" d=" M 38 40.4 L 38 38.4 " />
<path id= "20" d=" M 57 -25.5 L 57 -5.5 " />
<path id= "21" d=" M 38 38.4 L 36.75 38.4 " />
<path id= "22" d=" M 60 -25.5 L 57 -25.5 " />
<path id= "23" d=" M 36.75 38.4 L 36.75 35.4 " />
<path id= "24" d=" M 60 -25.5 L 60 -32.15 " />
<path id= "25" d=" M 34.25 35.4 L 36.75 35.4 " />
<path id= "26" d=" M 60 -32.15 L 56.3 -32.15 " />
<path id= "27" d=" M 34.25 38.4 L 34.25 35.4 " />
<path id= "28" d=" M 56.3 -32.15 L 56.3 -34.85 " />
<path id= "29" d=" M 33 38.4 L 34.25 38.4 " />
<path id= "30" d=" M 56.3 -34.85 L 60 -34.85 " />
<path id= "31" d=" M 33 40.4 L 33 38.4 " />
<path id= "32" d=" M 60 -34.85 L 60 -41.5 " />
<path id= "33" d=" M 34.25 40.4 L 33 40.4 " />
<path id= "34" d=" M 57 -41.5 L 60 -41.5 " />
<path id= "35" d=" M 34.25 44.5 L 34.25 40.4 " />
<path id= "36" d=" M 57 -47.5 L 57 -41.5 " />
<path id= "37" d=" M 27.5 44.5 L 34.25 44.5 " />
<path id= "38" d=" M 27.5 47.5 L 27.5 44.5 " />
<path id= "39" d=" M 43.5 -44.5 L 43.5 -47.5 " />
<path id= "40" d=" M 16.5 47.5 L 27.5 47.5 " />
<path id= "41" d=" M 36.75 -44.5 L 43.5 -44.5 " />
<path id= "42" d=" M 16.5 44.5 L 16.5 47.5 " />
<path id= "43" d=" M 36.75 -44.5 L 36.75 -40.4 " />
<path id= "44" d=" M 5.5 44.5 L 16.5 44.5 " />
<path id= "45" d=" M 36.75 -40.4 L 38 -40.4 " />
<path id= "46" d=" M 5.5 47.5 L 5.5 44.5 " />
<path id= "47" d=" M 38 -40.4 L 38 -38.4 " />
<path id= "48" d=" M -5.5 47.5 L 5.5 47.5 " />
<path id= "49" d=" M 38 -38.4 L 36.75 -38.4 " />
<path id= "50" d=" M -5.5 47.5 L -5.5 44.5 " />
<path id= "51" d=" M 36.75 -38.4 L 36.75 -35.4 " />
<path id= "52" d=" M -5.5 44.5 L -16.5 44.5 " />
<path id= "53" d=" M 34.25 -35.4 L 36.75 -35.4 " />
<path id= "54" d=" M -16.5 44.5 L -16.5 47.5 " />
<path id= "55" d=" M 34.25 -38.4 L 34.25 -35.4 " />
<path id= "56" d=" M -27.5 47.5 L -16.5 47.5 " />
<path id= "57" d=" M 33 -38.4 L 34.25 -38.4 " />
<path id= "58" d=" M -27.5 47.5 L -27.5 44.5 " />
<path id= "59" d=" M 33 -40.4 L 33 -38.4 " />
<path id= "60" d=" M -27.5 44.5 L -34.25 44.5 " />
<path id= "61" d=" M 34.25 -40.4 L 33 -40.4 " />
<path id= "62" d=" M -34.25 44.5 L -34.25 40.4 " />
<path id= "63" d=" M 34.25 -44.5 L 34.25 -40.4 " />
<path id= "64" d=" M -34.25 40.4 L -33 40.4 " />
<path id= "65" d=" M 27.5 -44.5 L 34.25 -44.5 " />
<path id= "66" d=" M -33 40.4 L -33 38.4 " />
<path id= "67" d=" M 27.5 -47.5 L 27.5 -44.5 " />
<path id= "68" d=" M -33 38.4 L -34.25 38.4 " />
<path id= "69" d=" M 27.5 -47.5 L 16.5 -47.5 " />
<path id= "70" d=" M -34.25 38.4 L -34.25 35.4 " />
<path id= "71" d=" M 16.5 -44.5 L 16.5 -47.5 " />
<path id= "72" d=" M -34.25 35.4 L -36.75 35.4 " />
<path id= "73" d=" M 5.5 -44.5 L 16.5 -44.5 " />
<path id= "74" d=" M -36.75 38.4 L -36.75 35.4 " />
<path id= "75" d=" M 5.5 -47.5 L 5.5 -44.5 " />
<path id= "76" d=" M -38 38.4 L -36.75 38.4 " />
<path id= "77" d=" M 5.5 -47.5 L -5.5 -47.5 " />
<path id= "78" d=" M -38 40.4 L -38 38.4 " />
<path id= "79" d=" M -5.5 -47.5 L -5.5 -44.5 " />
<path id= "80" d=" M -36.75 40.4 L -38 40.4 " />
<path id= "81" d=" M -5.5 -44.5 L -16.5 -44.5 " />
<path id= "82" d=" M -36.75 44.5 L -36.75 40.4 " />
<path id= "83" d=" M -16.5 -44.5 L -16.5 -47.5 " />
<path id= "84" d=" M -36.75 44.5 L -43.5 44.5 " />
<path id= "85" d=" M -16.5 -47.5 L -27.5 -47.5 " />
<path id= "86" d=" M -43.5 44.5 L -43.5 47.5 " />
<path id= "87" d=" M -27.5 -47.5 L -27.5 -44.5 " />
<path id= "88" d=" M -57 47.5 L -43.5 47.5 " />
<path id= "89" d=" M -27.5 -44.5 L -34.25 -44.5 " />
<path id= "90" d=" M -57 47.5 L -57 41.5 " />
<path id= "91" d=" M -34.25 -44.5 L -34.25 -40.4 " />
<path id= "92" d=" M -57 41.5 L -60 41.5 " />
<path id= "93" d=" M -34.25 -40.4 L -33 -40.4 " />
<path id= "94" d=" M -60 34.85 L -60 41.5 " />
<path id= "95" d=" M -33 -40.4 L -33 -38.4 " />
<path id= "96" d=" M -56.3 34.85 L -60 34.85 " />
<path id= "97" d=" M -33 -38.4 L -34.25 -38.4 " />
<path id= "98" d=" M -56.3 32.15 L -56.3 34.85 " />
<path id= "99" d=" M -34.25 -38.4 L -34.25 -35.4 " />
<path id= "100" d=" M -60 32.15 L -56.3 32.15 " />
<path id= "101" d=" M -34.25 -35.4 L -36.75 -35.4 " />
<path id= "102" d=" M -60 25.5 L -60 32.15 " />
<path id= "103" d=" M -36.75 -38.4 L -36.75 -35.4 " />
<path id= "104" d=" M -60 25.5 L -57 25.5 " />
<path id= "105" d=" M -38 -38.4 L -36.75 -38.4 " />
<path id= "106" d=" M -57 25.5 L -57 5.5 " />
<path id= "107" d=" M -38 -40.4 L -38 -38.4 " />
<path id= "108" d=" M -57 5.5 L -60 5.5 " />
<path id= "109" d=" M -36.75 -40.4 L -38 -40.4 " />
<path id= "110" d=" M -60 -5.5 L -60 5.5 " />
<path id= "111" d=" M -36.75 -44.5 L -36.75 -40.4 " />
<path id= "112" d=" M -57 -5.5 L -60 -5.5 " />
<path id= "113" d=" M -36.75 -44.5 L -43.5 -44.5 " />
<path id= "114" d=" M -57 -25.5 L -57 -5.5 " />
<path id= "115" d=" M -43.5 -44.5 L -43.5 -47.5 " />
<path id= "116" d=" M -60 -25.5 L -57 -25.5 " />
<path id= "117" d=" M -43.5 -47.5 L -57 -47.5 " />
<path id= "118" d=" M -60 -32.15 L -60 -25.5 " />
<path id= "119" d=" M -57 -47.5 L -57 -41.5 " />
<path id= "120" d=" M -56.3 -32.15 L -60 -32.15 " />
<path id= "121" d=" M -57 -41.5 L -60 -41.5 " />
<path id= "122" d=" M -56.3 -34.85 L -56.3 -32.15 " />
<path id= "123" d=" M -60 -41.5 L -60 -34.85 " />
<path id= "124" d=" M -60 -34.85 L -56.3 -34.85 " />
<circle cx ="-39.375" cy ="-12.5" r ="1.75" /><circle cx ="-33.75" cy ="-12.5" r ="1.75" /><circle cx ="-33.75" cy ="-6.25" r ="1.75" /><circle cx ="-39.375" cy ="-6.25" r ="1.75" /><circle cx ="-22.5" cy ="-6.25" r ="1.75" /><circle cx ="-28.125" cy ="-6.25" r ="1.75" /><circle cx ="-28.125" cy ="-12.5" r ="1.75" /><circle cx ="-22.5" cy ="-12.5" r ="1.75" /><path d="M-1.75 -6.25 A1.75 1.75 0 0 1 1.75 -6.25" /><path d="M1.75 -6.25 A1.75 1.75 0 0 1 -1.75 -6.25" /><circle cx ="-5.625" cy ="-6.25" r ="1.75" /><circle cx ="-5.625" cy ="-12.5" r ="1.75" /><path d="M-1.75 -12.5 A1.75 1.75 0 0 1 1.75 -12.5" /><path d="M1.75 -12.5 A1.75 1.75 0 0 1 -1.75 -12.5" /><circle cx ="-11.25" cy ="-12.5" r ="1.75" /><circle cx ="-11.25" cy ="-6.25" r ="1.75" /><circle cx ="-16.875" cy ="-12.5" r ="1.75" /><circle cx ="-16.875" cy ="-6.25" r ="1.75" /><circle cx ="33.75" cy ="-12.5" r ="1.75" /><circle cx ="28.125" cy ="-12.5" r ="1.75" /><circle cx ="28.125" cy ="-6.25" r ="1.75" /><circle cx ="33.75" cy ="-6.25" r ="1.75" /><circle cx ="22.5" cy ="-12.5" r ="1.75" /><circle cx ="22.5" cy ="-6.25" r ="1.75" /><circle cx ="11.25" cy ="-6.25" r ="1.75" /><circle cx ="16.875" cy ="-6.25" r ="1.75" /><circle cx ="16.875" cy ="-12.5" r ="1.75" /><circle cx ="11.25" cy ="-12.5" r ="1.75" /><circle cx ="5.625" cy ="-6.25" r ="1.75" /><circle cx ="5.625" cy ="-12.5" r ="1.75" /><circle cx ="-11.25" cy ="12.5" r ="1.75" /><circle cx ="-5.625" cy ="6.25" r ="1.75" /><circle cx ="22.5" cy ="6.25" r ="1.75" /><circle cx ="16.875" cy ="6.25" r ="1.75" /><circle cx ="11.25" cy ="6.25" r ="1.75" /><circle cx ="22.5" cy ="12.5" r ="1.75" /><circle cx ="16.875" cy ="12.5" r ="1.75" /><circle cx ="16.875" cy ="0" r ="1.75" /><circle cx ="22.5" cy ="0" r ="1.75" /><circle cx ="-16.875" cy ="0" r ="1.75" /><circle cx ="-11.25" cy ="0" r ="1.75" /><circle cx ="-5.625" cy ="0" r ="1.75" /><circle cx ="5.625" cy ="0" r ="1.75" /><path d="M-1.75 0 A1.75 1.75 0 0 0 1.75 2.14313e-16" /><path d="M1.75 2.14313e-16 A1.75 1.75 0 0 0 -1.75 -4.28626e-16" /><circle cx ="11.25" cy ="0" r ="1.75" /><path d="M-1.75 6.25 A1.75 1.75 0 0 0 1.75 6.25" /><path d="M1.75 6.25 A1.75 1.75 0 0 0 -1.75 6.25" /><circle cx ="5.625" cy ="6.25" r ="1.75" /><circle cx ="-16.875" cy ="6.25" r ="1.75" /><circle cx ="-11.25" cy ="6.25" r ="1.75" /><circle cx ="-16.875" cy ="12.5" r ="1.75" /><circle cx ="-5.625" cy ="12.5" r ="1.75" /><circle cx ="11.25" cy ="12.5" r ="1.75" /><circle cx ="5.625" cy ="12.5" r ="1.75" /><path d="M-1.75 12.5 A1.75 1.75 0 0 0 1.75 12.5" /><path d="M1.75 12.5 A1.75 1.75 0 0 0 -1.75 12.5" /><circle cx ="-22.5" cy ="6.25" r ="1.75" /><circle cx ="-22.5" cy ="0" r ="1.75" /><circle cx ="-22.5" cy ="12.5" r ="1.75" /><circle cx ="28.125" cy ="0" r ="1.75" /><circle cx ="28.125" cy ="6.25" r ="1.75" /><circle cx ="28.125" cy ="12.5" r ="1.75" /><circle cx ="33.75" cy ="0" r ="1.75" /><circle cx ="33.75" cy ="6.25" r ="1.75" /><circle cx ="33.75" cy ="12.5" r ="1.75" /><circle cx ="-28.125" cy ="12.5" r ="1.75" /><circle cx ="-28.125" cy ="6.25" r ="1.75" /><circle cx ="-28.125" cy ="0" r ="1.75" /><circle cx ="-33.75" cy ="6.25" r ="1.75" /><circle cx ="-33.75" cy ="12.5" r ="1.75" /><circle cx ="-33.75" cy ="0" r ="1.75" /><circle cx ="-39.375" cy ="12.5" r ="1.75" /><circle cx ="-39.375" cy ="6.25" r ="1.75" /><circle cx ="-39.375" cy ="0" r ="1.75" /><circle cx ="-11.25" cy ="-25" r ="1.75" /><circle cx ="-5.625" cy ="-25" r ="1.75" /><path d="M-1.75 -25 A1.75 1.75 0 0 1 1.75 -25" /><path d="M1.75 -25 A1.75 1.75 0 0 1 -1.75 -25" /><circle cx ="-11.25" cy ="-18.75" r ="1.75" /><circle cx ="-5.625" cy ="-18.75" r ="1.75" /><path d="M-1.75 -18.75 A1.75 1.75 0 0 1 1.75 -18.75" /><path d="M1.75 -18.75 A1.75 1.75 0 0 1 -1.75 -18.75" /><circle cx ="-22.5" cy ="-25" r ="1.75" /><circle cx ="-16.875" cy ="-25" r ="1.75" /><circle cx ="-22.5" cy ="-18.75" r ="1.75" /><circle cx ="-16.875" cy ="-18.75" r ="1.75" /><circle cx ="5.625" cy ="-18.75" r ="1.75" /><circle cx ="5.625" cy ="-25" r ="1.75" /><circle cx ="-28.125" cy ="-18.75" r ="1.75" /><circle cx ="-28.125" cy ="-25" r ="1.75" /><circle cx ="11.25" cy ="-25" r ="1.75" /><circle cx ="11.25" cy ="-18.75" r ="1.75" /><circle cx ="33.75" cy ="-18.75" r ="1.75" /><circle cx ="28.125" cy ="-18.75" r ="1.75" /><circle cx ="16.875" cy ="-18.75" r ="1.75" /><circle cx ="22.5" cy ="-18.75" r ="1.75" /><circle cx ="33.75" cy ="-25" r ="1.75" /><circle cx ="28.125" cy ="-25" r ="1.75" /><circle cx ="22.5" cy ="-25" r ="1.75" /><circle cx ="16.875" cy ="-25" r ="1.75" /><circle cx ="-33.75" cy ="-25" r ="1.75" /><circle cx ="-33.75" cy ="-18.75" r ="1.75" /><circle cx ="-39.375" cy ="-18.75" r ="1.75" /><circle cx ="-39.375" cy ="-25" r ="1.75" /><circle cx ="22.5" cy ="18.75" r ="1.75" /><circle cx ="16.875" cy ="18.75" r ="1.75" /><circle cx ="5.625" cy ="18.75" r ="1.75" /><circle cx ="11.25" cy ="18.75" r ="1.75" /><circle cx ="-5.625" cy ="18.75" r ="1.75" /><path d="M-1.75 18.75 A1.75 1.75 0 0 0 1.75 18.75" /><path d="M1.75 18.75 A1.75 1.75 0 0 0 -1.75 18.75" /><circle cx ="-33.75" cy ="18.75" r ="1.75" /><circle cx ="-28.125" cy ="18.75" r ="1.75" /><circle cx ="-16.875" cy ="18.75" r ="1.75" /><circle cx ="-22.5" cy ="18.75" r ="1.75" /><circle cx ="-11.25" cy ="18.75" r ="1.75" /><circle cx ="-39.375" cy ="18.75" r ="1.75" /><circle cx ="33.75" cy ="18.75" r ="1.75" /><circle cx ="28.125" cy ="18.75" r ="1.75" /><circle cx ="-5.625" cy ="25" r ="1.75" /><path d="M-1.75 25 A1.75 1.75 0 0 0 1.75 25" /><path d="M1.75 25 A1.75 1.75 0 0 0 -1.75 25" /><circle cx ="5.625" cy ="25" r ="1.75" /><circle cx ="16.875" cy ="25" r ="1.75" /><circle cx ="11.25" cy ="25" r ="1.75" /><circle cx ="-22.5" cy ="25" r ="1.75" /><circle cx ="-16.875" cy ="25" r ="1.75" /><circle cx ="-11.25" cy ="25" r ="1.75" /><circle cx ="22.5" cy ="25" r ="1.75" /><circle cx ="-39.375" cy ="25" r ="1.75" /><circle cx ="-33.75" cy ="25" r ="1.75" /><circle cx ="-28.125" cy ="25" r ="1.75" /><circle cx ="33.75" cy ="25" r ="1.75" /><circle cx ="28.125" cy ="25" r ="1.75" /><circle cx ="-45" cy ="18.75" r ="1.75" /><circle cx ="-45" cy ="12.5" r ="1.75" /><circle cx ="-45" cy ="25" r ="1.75" /><circle cx ="-45" cy ="6.25" r ="1.75" /><circle cx ="-45" cy ="-18.75" r ="1.75" /><circle cx ="-45" cy ="-12.5" r ="1.75" /><circle cx ="-45" cy ="-6.25" r ="1.75" /><circle cx ="-45" cy ="0" r ="1.75" /><circle cx ="-45" cy ="-25" r ="1.75" /><circle cx ="39.375" cy ="18.75" r ="1.75" /><circle cx ="39.375" cy ="25" r ="1.75" /><circle cx ="39.375" cy ="12.5" r ="1.75" /><circle cx ="39.375" cy ="-6.25" r ="1.75" /><circle cx ="39.375" cy ="0" r ="1.75" /><circle cx ="39.375" cy ="6.25" r ="1.75" /><circle cx ="39.375" cy ="-12.5" r ="1.75" /><circle cx ="39.375" cy ="-18.75" r ="1.75" /><circle cx ="39.375" cy ="-25" r ="1.75" /><circle cx ="45" cy ="25" r ="1.75" /><circle cx ="45" cy ="18.75" r ="1.75" /><circle cx ="45" cy ="12.5" r ="1.75" /><circle cx ="45" cy ="0" r ="1.75" /><circle cx ="45" cy ="6.25" r ="1.75" /><circle cx ="45" cy ="-6.25" r ="1.75" /><circle cx ="45" cy ="-25" r ="1.75" /><circle cx ="45" cy ="-18.75" r ="1.75" /><circle cx ="45" cy ="-12.5" r ="1.75" /></g>
</g>



<g id="Ortho_0_0"
   transform="rotate(0,200,70) translate(200,70) scale(1,1)"
  >
<g   fill="none"
   stroke="rgb(0, 0, 0)"
   stroke-linecap="butt"
   stroke-linejoin="miter"
   stroke-width="0.350000"
   transform="scale(1,-1)"
  >
<path id= "1" d=" M -57 -47.5 L -43.5 -47.5 " />
<path id= "2" d=" M -43.5 -47.5 L -43.5 -44.5 " />
<path id= "3" d=" M -60 5.5 L -57 5.5 " />
<path id= "4" d=" M -60 5.5 L -60 -5.5 " />
<path id= "5" d=" M -57 5.5 L -57 25.5 " />
<path id= "6" d=" M -60 -5.5 L -57 -5.5 " />
<path id= "7" d=" M -57 25.5 L -60 25.5 " />
<path id= "8" d=" M -57 -5.5 L -57 -25.5 " />
<path id= "9" d=" M -60 32.25 L -60 25.5 " />
<path id= "10" d=" M -57 -25.5 L -60 -25.5 " />
<path id= "11" d=" M -60 32.25 L -56.3 32.25 " />
<path id= "12" d=" M -60 -25.5 L -60 -32.25 " />
<path id= "13" d=" M -56.3 32.25 L -56.3 34.75 " />
<path id= "14" d=" M -60 -32.25 L -56.3 -32.25 " />
<path id= "15" d=" M -56.3 34.75 L -60 34.75 " />
<path id= "16" d=" M -56.3 -32.25 L -56.3 -34.75 " />
<path id= "17" d=" M -60 41.5 L -60 34.75 " />
<path id= "18" d=" M -56.3 -34.75 L -60 -34.75 " />
<path id= "19" d=" M -60 41.5 L -57 41.5 " />
<path id= "20" d=" M -60 -34.75 L -60 -41.5 " />
<path id= "21" d=" M -57 41.5 L -57 47.5 " />
<path id= "22" d=" M -60 -41.5 L -57 -41.5 " />
<path id= "23" d=" M -43.5 47.5 L -57 47.5 " />
<path id= "24" d=" M -57 -41.5 L -57 -47.5 " />
<path id= "25" d=" M -43.5 47.5 L -43.5 44.5 " />
<path id= "26" d=" M -43.5 44.5 L -36.75 44.5 " />
<path id= "27" d=" M -36.75 40.4 L -36.75 44.5 " />
<path id= "28" d=" M -43.5 -44.5 L -36.75 -44.5 " />
<path id= "29" d=" M -38 40.4 L -36.75 40.4 " />
<path id= "30" d=" M -36.75 -40.4 L -36.75 -44.5 " />
<path id= "31" d=" M -38 38.4 L -38 40.4 " />
<path id= "32" d=" M -38 -40.4 L -36.75 -40.4 " />
<path id= "33" d=" M -36.75 38.4 L -38 38.4 " />
<path id= "34" d=" M -38 -38.4 L -38 -40.4 " />
<path id= "35" d=" M -36.75 35.4 L -36.75 38.4 " />
<path id= "36" d=" M -36.75 -38.4 L -38 -38.4 " />
<path id= "37" d=" M -36.75 35.4 L -34.25 35.4 " />
<path id= "38" d=" M -36.75 -35.4 L -36.75 -38.4 " />
<path id= "39" d=" M -34.25 35.4 L -34.25 38.4 " />
<path id= "40" d=" M -36.75 -35.4 L -34.25 -35.4 " />
<path id= "41" d=" M -34.25 38.4 L -33 38.4 " />
<path id= "42" d=" M -34.25 -35.4 L -34.25 -38.4 " />
<path id= "43" d=" M -33 38.4 L -33 40.4 " />
<path id= "44" d=" M -34.25 -38.4 L -33 -38.4 " />
<path id= "45" d=" M -33 40.4 L -34.25 40.4 " />
<path id= "46" d=" M -33 -38.4 L -33 -40.4 " />
<path id= "47" d=" M -34.25 40.4 L -34.25 44.5 " />
<path id= "48" d=" M -33 -40.4 L -34.25 -40.4 " />
<path id= "49" d=" M -34.25 44.5 L -27.5 44.5 " />
<path id= "50" d=" M -34.25 -40.4 L -34.25 -44.5 " />
<path id= "51" d=" M -27.5 44.5 L -27.5 47.5 " />
<path id= "52" d=" M -34.25 -44.5 L -27.5 -44.5 " />
<path id= "53" d=" M -16.5 47.5 L -27.5 47.5 " />
<path id= "54" d=" M -27.5 -44.5 L -27.5 -47.5 " />
<path id= "55" d=" M -16.5 47.5 L -16.5 44.5 " />
<path id= "56" d=" M -27.5 -47.5 L -16.5 -47.5 " />
<path id= "57" d=" M -16.5 44.5 L -5.5 44.5 " />
<path id= "58" d=" M -16.5 -47.5 L -16.5 -44.5 " />
<path id= "59" d=" M -5.5 44.5 L -5.5 47.5 " />
<path id= "60" d=" M -16.5 -44.5 L -5.5 -44.5 " />
<path id= "61" d=" M 5.5 47.5 L -5.5 47.5 " />
<path id= "62" d=" M -5.5 -44.5 L -5.5 -47.5 " />
<path id= "63" d=" M 5.5 44.5 L 5.5 47.5 " />
<path id= "64" d=" M -5.5 -47.5 L 5.5 -47.5 " />
<path id= "65" d=" M 16.5 44.5 L 5.5 44.5 " />
<path id= "66" d=" M 5.5 -44.5 L 5.5 -47.5 " />
<path id= "67" d=" M 16.5 47.5 L 16.5 44.5 " />
<path id= "68" d=" M 16.5 -44.5 L 5.5 -44.5 " />
<path id= "69" d=" M 27.5 47.5 L 16.5 47.5 " />
<path id= "70" d=" M 16.5 -47.5 L 16.5 -44.5 " />
<path id= "71" d=" M 27.5 44.5 L 27.5 47.5 " />
<path id= "72" d=" M 16.5 -47.5 L 27.5 -47.5 " />
<path id= "73" d=" M 34.25 44.5 L 27.5 44.5 " />
<path id= "74" d=" M 27.5 -44.5 L 27.5 -47.5 " />
<path id= "75" d=" M 34.25 40.4 L 34.25 44.5 " />
<path id= "76" d=" M 34.25 -44.5 L 27.5 -44.5 " />
<path id= "77" d=" M 33 40.4 L 34.25 40.4 " />
<path id= "78" d=" M 34.25 -40.4 L 34.25 -44.5 " />
<path id= "79" d=" M 33 38.4 L 33 40.4 " />
<path id= "80" d=" M 33 -40.4 L 34.25 -40.4 " />
<path id= "81" d=" M 34.25 38.4 L 33 38.4 " />
<path id= "82" d=" M 33 -38.4 L 33 -40.4 " />
<path id= "83" d=" M 34.25 35.4 L 34.25 38.4 " />
<path id= "84" d=" M 34.25 -38.4 L 33 -38.4 " />
<path id= "85" d=" M 36.75 35.4 L 34.25 35.4 " />
<path id= "86" d=" M 34.25 -35.4 L 34.25 -38.4 " />
<path id= "87" d=" M 36.75 35.4 L 36.75 38.4 " />
<path id= "88" d=" M 36.75 -35.4 L 34.25 -35.4 " />
<path id= "89" d=" M 36.75 38.4 L 38 38.4 " />
<path id= "90" d=" M 36.75 -35.4 L 36.75 -38.4 " />
<path id= "91" d=" M 38 38.4 L 38 40.4 " />
<path id= "92" d=" M 36.75 -38.4 L 38 -38.4 " />
<path id= "93" d=" M 38 40.4 L 36.75 40.4 " />
<path id= "94" d=" M 38 -38.4 L 38 -40.4 " />
<path id= "95" d=" M 36.75 40.4 L 36.75 44.5 " />
<path id= "96" d=" M 38 -40.4 L 36.75 -40.4 " />
<path id= "97" d=" M 43.5 44.5 L 36.75 44.5 " />
<path id= "98" d=" M 36.75 -40.4 L 36.75 -44.5 " />
<path id= "99" d=" M 43.5 47.5 L 43.5 44.5 " />
<path id= "100" d=" M 43.5 -44.5 L 36.75 -44.5 " />
<path id= "101" d=" M 57 47.5 L 43.5 47.5 " />
<path id= "102" d=" M 43.5 -47.5 L 43.5 -44.5 " />
<path id= "103" d=" M 57 41.5 L 57 47.5 " />
<path id= "104" d=" M 43.5 -47.5 L 57 -47.5 " />
<path id= "105" d=" M 60 41.5 L 57 41.5 " />
<path id= "106" d=" M 57 -41.5 L 57 -47.5 " />
<path id= "107" d=" M 60 34.75 L 60 41.5 " />
<path id= "108" d=" M 60 -41.5 L 57 -41.5 " />
<path id= "109" d=" M 56.3 34.75 L 60 34.75 " />
<path id= "110" d=" M 60 -41.5 L 60 -34.75 " />
<path id= "111" d=" M 56.3 32.25 L 56.3 34.75 " />
<path id= "112" d=" M 56.3 -34.75 L 60 -34.75 " />
<path id= "113" d=" M 60 32.25 L 56.3 32.25 " />
<path id= "114" d=" M 56.3 -32.25 L 56.3 -34.75 " />
<path id= "115" d=" M 60 25.5 L 60 32.25 " />
<path id= "116" d=" M 60 -32.25 L 56.3 -32.25 " />
<path id= "117" d=" M 57 25.5 L 60 25.5 " />
<path id= "118" d=" M 60 -32.25 L 60 -25.5 " />
<path id= "119" d=" M 57 5.5 L 57 25.5 " />
<path id= "120" d=" M 57 -25.5 L 60 -25.5 " />
<path id= "121" d=" M 60 5.5 L 57 5.5 " />
<path id= "122" d=" M 57 -5.5 L 57 -25.5 " />
<path id= "123" d=" M 60 -5.5 L 60 5.5 " />
<path id= "124" d=" M 60 -5.5 L 57 -5.5 " />
<path id= "125" d=" M 28 27.5 L -50 27.5 " />
<path id= "126" d=" M -50 27.5 L -50 -23.5 " />
<path id= "127" d=" M -50 -23.5 L 28 -23.5 " />
<path id= "128" d=" M 28 -23.5 L 28 27.5 " />
</g>
</g>



<g id="Ortho_0_0"
   transform="rotate(0,320,70) translate(320,70) scale(1,1)"
  >
<g   fill="none"
   stroke="rgb(0, 0, 0)"
   stroke-linecap="butt"
   stroke-linejoin="miter"
   stroke-width="0.350000"
   transform="scale(1,-1)"
  >
<path id= "1" d=" M -42.5 -47.5 L -27.5 -47.5 " />
<path id= "2" d=" M -27.5 -47.5 L -27.5 -44.5 " />
<path id= "3" d=" M -51 44.5 L -42.5 44.5 " />
<path id= "4" d=" M -42.5 44.5 L -42.5 47.5 " />
<path id= "5" d=" M -27.5 47.5 L -42.5 47.5 " />
<path id= "6" d=" M -27.5 47.5 L -27.5 44.5 " />
<path id= "7" d=" M -27.5 44.5 L -7.5 44.5 " />
<path id= "8" d=" M -7.5 44.5 L -7.5 47.5 " />
<path id= "9" d=" M 7.5 47.5 L -7.5 47.5 " />
<path id= "10" d=" M 7.5 44.5 L 7.5 47.5 " />
<path id= "11" d=" M 27.5 44.5 L 7.5 44.5 " />
<path id= "12" d=" M 27.5 47.5 L 27.5 44.5 " />
<path id= "13" d=" M 42.5 47.5 L 27.5 47.5 " />
<path id= "14" d=" M 42.5 44.5 L 42.5 47.5 " />
<path id= "15" d=" M 51 44.5 L 42.5 44.5 " />
<path id= "16" d=" M 51 -44.5 L 51 44.5 " />
<path id= "17" d=" M 51 -44.5 L 42.5 -44.5 " />
<path id= "18" d=" M 42.5 -44.5 L 42.5 -47.5 " />
<path id= "19" d=" M 27.5 -47.5 L 42.5 -47.5 " />
<path id= "20" d=" M 27.5 -47.5 L 27.5 -44.5 " />
<path id= "21" d=" M 27.5 -44.5 L 7.5 -44.5 " />
<path id= "22" d=" M 7.5 -44.5 L 7.5 -47.5 " />
<path id= "23" d=" M -7.5 -47.5 L 7.5 -47.5 " />
<path id= "24" d=" M -7.5 -44.5 L -7.5 -47.5 " />
<path id= "25" d=" M -27.5 -44.5 L -7.5 -44.5 " />
<path id= "26" d=" M -42.5 -44.5 L -42.5 -47.5 " />
<path id= "27" d=" M -51 -44.5 L -42.5 -44.5 " />
<path id= "28" d=" M -51 44.5 L -51 -44.5 " />
</g>
</g>



<g id="Ortho_0_001"
   transform="rotate(90,70,180) translate(70,180) scale(1,1)"
  >
<g   fill="none"
   stroke="rgb(0, 0, 0)"
   stroke-linecap="butt"
   stroke-linejoin="miter"
   stroke-width="0.350000"
   transform="scale(1,-1)"
  >
<path id= "1" d=" M -41 -43.5 L -41 -36.75 " />
<path id= "2" d=" M 38 -60 L 23.5 -60 " />
<path id= "3" d=" M 38 -43.5 L 38 -60 " />
<path id= "4" d=" M 41 -43.5 L 38 -43.5 " />
<path id= "5" d=" M 41 -36.75 L 41 -43.5 " />
<path id= "6" d=" M 41 -36.75 L 37 -36.75 " />
<path id= "7" d=" M 37 -36.75 L 37 -34.25 " />
<path id= "8" d=" M 37 -34.25 L 41 -34.25 " />
<path id= "9" d=" M 41 -27.5 L 41 -34.25 " />
<path id= "10" d=" M 38 -27.5 L 41 -27.5 " />
<path id= "11" d=" M 38 -16.5 L 38 -27.5 " />
<path id= "12" d=" M 41 -16.5 L 38 -16.5 " />
<path id= "13" d=" M 41 -5.5 L 41 -16.5 " />
<path id= "14" d=" M 38 -5.5 L 41 -5.5 " />
<path id= "15" d=" M 38 5.5 L 38 -5.5 " />
<path id= "16" d=" M 41 5.5 L 38 5.5 " />
<path id= "17" d=" M 41 16.5 L 41 5.5 " />
<path id= "18" d=" M 41 16.5 L 38 16.5 " />
<path id= "19" d=" M 38 16.5 L 38 27.5 " />
<path id= "20" d=" M 38 27.5 L 41 27.5 " />
<path id= "21" d=" M 41 34.25 L 41 27.5 " />
<path id= "22" d=" M 37 34.25 L 41 34.25 " />
<path id= "23" d=" M 37 36.75 L 37 34.25 " />
<path id= "24" d=" M 41 36.75 L 37 36.75 " />
<path id= "25" d=" M 41 43.5 L 41 36.75 " />
<path id= "26" d=" M 41 43.5 L 38 43.5 " />
<path id= "27" d=" M 38 43.5 L 38 60 " />
<path id= "28" d=" M 23.5 60 L 38 60 " />
<path id= "29" d=" M 23.5 60 L 23.5 57 " />
<path id= "30" d=" M 23.5 57 L 15.75 57 " />
<path id= "31" d=" M 15.75 57 L 15.75 53 " />
<path id= "32" d=" M 15.75 53 L 17 53 " />
<path id= "33" d=" M 17 53 L 17 51 " />
<path id= "34" d=" M 17 51 L 15.75 51 " />
<path id= "35" d=" M 15.75 51 L 15.75 47.9 " />
<path id= "36" d=" M 15.75 47.9 L 13.25 47.9 " />
<path id= "37" d=" M 13.25 47.9 L 13.25 51 " />
<path id= "38" d=" M 13.25 51 L 12 51 " />
<path id= "39" d=" M 12 51 L 12 53 " />
<path id= "40" d=" M 12 53 L 13.25 53 " />
<path id= "41" d=" M 13.25 53 L 13.25 57 " />
<path id= "42" d=" M 13.25 57 L 5.5 57 " />
<path id= "43" d=" M 5.5 57 L 5.5 60 " />
<path id= "44" d=" M -5.5 60 L 5.5 60 " />
<path id= "45" d=" M -5.5 57 L -5.5 60 " />
<path id= "46" d=" M -13.25 57 L -5.5 57 " />
<path id= "47" d=" M -13.25 53 L -13.25 57 " />
<path id= "48" d=" M -12 53 L -13.25 53 " />
<path id= "49" d=" M -12 51 L -12 53 " />
<path id= "50" d=" M -13.25 51 L -12 51 " />
<path id= "51" d=" M -13.25 47.9 L -13.25 51 " />
<path id= "52" d=" M -15.75 47.9 L -13.25 47.9 " />
<path id= "53" d=" M -15.75 51 L -15.75 47.9 " />
<path id= "54" d=" M -17 51 L -15.75 51 " />
<path id= "55" d=" M -17 53 L -17 51 " />
<path id= "56" d=" M -15.75 53 L -17 53 " />
<path id= "57" d=" M -15.75 57 L -15.75 53 " />
<path id= "58" d=" M -23.5 57 L -15.75 57 " />
<path id= "59" d=" M -23.5 60 L -23.5 57 " />
<path id= "60" d=" M -38 60 L -23.5 60 " />
<path id= "61" d=" M -38 43.5 L -38 60 " />
<path id= "62" d=" M -41 43.5 L -38 43.5 " />
<path id= "63" d=" M -41 36.75 L -41 43.5 " />
<path id= "64" d=" M -41 36.75 L -37 36.75 " />
<path id= "65" d=" M -37 36.75 L -37 34.25 " />
<path id= "66" d=" M -37 34.25 L -41 34.25 " />
<path id= "67" d=" M -41 27.5 L -41 34.25 " />
<path id= "68" d=" M -38 27.5 L -41 27.5 " />
<path id= "69" d=" M -38 16.5 L -38 27.5 " />
<path id= "70" d=" M -41 16.5 L -38 16.5 " />
<path id= "71" d=" M -41 5.5 L -41 16.5 " />
<path id= "72" d=" M -41 5.5 L -38 5.5 " />
<path id= "73" d=" M -38 5.5 L -38 -5.5 " />
<path id= "74" d=" M -38 -5.5 L -41 -5.5 " />
<path id= "75" d=" M -41 -16.5 L -41 -5.5 " />
<path id= "76" d=" M -41 -16.5 L -38 -16.5 " />
<path id= "77" d=" M -38 -16.5 L -38 -27.5 " />
<path id= "78" d=" M -38 -27.5 L -41 -27.5 " />
<path id= "79" d=" M -41 -34.25 L -41 -27.5 " />
<path id= "80" d=" M -37 -34.25 L -41 -34.25 " />
<path id= "81" d=" M -37 -36.75 L -37 -34.25 " />
<path id= "82" d=" M -41 -36.75 L -37 -36.75 " />
<path id= "83" d=" M -41 -43.5 L -38 -43.5 " />
<path id= "84" d=" M -38 -43.5 L -38 -60 " />
<path id= "85" d=" M -23.5 -60 L -38 -60 " />
<path id= "86" d=" M -23.5 -60 L -23.5 -57 " />
<path id= "87" d=" M -23.5 -57 L -15.75 -57 " />
<path id= "88" d=" M -15.75 -57 L -15.75 -53 " />
<path id= "89" d=" M -15.75 -53 L -17 -53 " />
<path id= "90" d=" M -17 -53 L -17 -51 " />
<path id= "91" d=" M -17 -51 L -15.75 -51 " />
<path id= "92" d=" M -15.75 -51 L -15.75 -47.9 " />
<path id= "93" d=" M -15.75 -47.9 L -13.25 -47.9 " />
<path id= "94" d=" M -13.25 -47.9 L -13.25 -51 " />
<path id= "95" d=" M -13.25 -51 L -12 -51 " />
<path id= "96" d=" M -12 -51 L -12 -53 " />
<path id= "97" d=" M -12 -53 L -13.25 -53 " />
<path id= "98" d=" M -13.25 -53 L -13.25 -57 " />
<path id= "99" d=" M -13.25 -57 L -5.5 -57 " />
<path id= "100" d=" M -5.5 -57 L -5.5 -60 " />
<path id= "101" d=" M 5.5 -60 L -5.5 -60 " />
<path id= "102" d=" M 5.5 -57 L 5.5 -60 " />
<path id= "103" d=" M 23.5 -57 L 5.5 -57 " />
<path id= "104" d=" M 23.5 -60 L 23.5 -57 " />
<path id= "105" d=" M 2 27.5 L 5 27.5 " />
<path id= "106" d=" M 2 42.5 L 2 27.5 " />
<path id= "107" d=" M 5 27.5 L 5 42.5 " />
<path id= "108" d=" M 5 42.5 L 2 42.5 " />
<path id= "109" d=" M 2 -7.5 L 5 -7.5 " />
<path id= "110" d=" M 2 7.5 L 2 -7.5 " />
<path id= "111" d=" M 5 -7.5 L 5 7.5 " />
<path id= "112" d=" M 5 7.5 L 2 7.5 " />
<path id= "113" d=" M 2 -42.5 L 5 -42.5 " />
<path id= "114" d=" M 2 -27.5 L 2 -42.5 " />
<path id= "115" d=" M 5 -42.5 L 5 -27.5 " />
<path id= "116" d=" M 5 -27.5 L 2 -27.5 " />
<path d="M15 -51 A3 3 0 0 0 12 -48" /><path id= "118" d=" M 15 -51 L 24 -51 " />
<path id= "119" d=" M 12 8.5 L 12 -48 " />
<path d="M27 -48 A3 3 0 0 0 24 -51" /><path d="M12 8.5 A3 3 0 0 0 15 11.5" /><path id= "122" d=" M 27 -48 L 27 8.5 " />
<path id= "123" d=" M 24 11.5 L 15 11.5 " />
<path d="M24 11.5 A3 3 0 0 0 27 8.5" /></g>
</g>



<g id="Ortho_0_0"
   transform="rotate(90,200.5,180) translate(200.5,180) scale(1,1)"
  >
<g   fill="none"
   stroke="rgb(0, 0, 0)"
   stroke-linecap="butt"
   stroke-linejoin="miter"
   stroke-width="0.350000"
   transform="scale(1,-1)"
  >
<path id= "1" d=" M 41 -43.5 L 41 -36.75 " />
<path id= "2" d=" M 37.3 -36.75 L 41 -36.75 " />
<path id= "3" d=" M -5.5 -60 L -5.5 -57 " />
<path id= "4" d=" M -5.5 -60 L 5.5 -60 " />
<path id= "5" d=" M -5.5 -57 L -13.25 -57 " />
<path id= "6" d=" M 5.5 -60 L 5.5 -57 " />
<path id= "7" d=" M -13.25 -57 L -13.25 -53 " />
<path id= "8" d=" M 5.5 -57 L 13.25 -57 " />
<path id= "9" d=" M -13.25 -53 L -12 -53 " />
<path id= "10" d=" M 13.25 -57 L 13.25 -53 " />
<path id= "11" d=" M -12 -53 L -12 -51 " />
<path id= "12" d=" M 13.25 -53 L 12 -53 " />
<path id= "13" d=" M -12 -51 L -13.25 -51 " />
<path id= "14" d=" M 12 -53 L 12 -51 " />
<path id= "15" d=" M -13.25 -51 L -13.25 -47.9 " />
<path id= "16" d=" M 12 -51 L 13.25 -51 " />
<path id= "17" d=" M -13.25 -47.9 L -15.75 -47.9 " />
<path id= "18" d=" M 13.25 -51 L 13.25 -47.9 " />
<path id= "19" d=" M -15.75 -47.9 L -15.75 -51 " />
<path id= "20" d=" M 13.25 -47.9 L 15.75 -47.9 " />
<path id= "21" d=" M -15.75 -51 L -17 -51 " />
<path id= "22" d=" M 15.75 -47.9 L 15.75 -51 " />
<path id= "23" d=" M -17 -51 L -17 -53 " />
<path id= "24" d=" M 15.75 -51 L 17 -51 " />
<path id= "25" d=" M -17 -53 L -15.75 -53 " />
<path id= "26" d=" M 17 -51 L 17 -53 " />
<path id= "27" d=" M -15.75 -53 L -15.75 -57 " />
<path id= "28" d=" M 17 -53 L 15.75 -53 " />
<path id= "29" d=" M -15.75 -57 L -23.5 -57 " />
<path id= "30" d=" M 15.75 -53 L 15.75 -57 " />
<path id= "31" d=" M -23.5 -57 L -23.5 -60 " />
<path id= "32" d=" M 15.75 -57 L 23.5 -57 " />
<path id= "33" d=" M -38 -60 L -23.5 -60 " />
<path id= "34" d=" M 23.5 -57 L 23.5 -60 " />
<path id= "35" d=" M -38 -60 L -38 -43.5 " />
<path id= "36" d=" M 23.5 -60 L 38 -60 " />
<path id= "37" d=" M -38 -43.5 L -41 -43.5 " />
<path id= "38" d=" M 38 -60 L 38 -43.5 " />
<path id= "39" d=" M -41 -36.75 L -41 -43.5 " />
<path id= "40" d=" M 38 -43.5 L 41 -43.5 " />
<path id= "41" d=" M -37.3 -36.75 L -41 -36.75 " />
<path id= "42" d=" M -37.3 -34.25 L -37.3 -36.75 " />
<path id= "43" d=" M -41 -34.25 L -37.3 -34.25 " />
<path id= "44" d=" M 37.3 -34.25 L 37.3 -36.75 " />
<path id= "45" d=" M -41 -27.5 L -41 -34.25 " />
<path id= "46" d=" M 41 -34.25 L 37.3 -34.25 " />
<path id= "47" d=" M -41 -27.5 L -38 -27.5 " />
<path id= "48" d=" M 41 -34.25 L 41 -27.5 " />
<path id= "49" d=" M -38 -27.5 L -38 -16.5 " />
<path id= "50" d=" M 41 -27.5 L 38 -27.5 " />
<path id= "51" d=" M -38 -16.5 L -41 -16.5 " />
<path id= "52" d=" M 38 -27.5 L 38 -16.5 " />
<path id= "53" d=" M -41 -5.5 L -41 -16.5 " />
<path id= "54" d=" M 38 -16.5 L 41 -16.5 " />
<path id= "55" d=" M -41 -5.5 L -38 -5.5 " />
<path id= "56" d=" M 41 -16.5 L 41 -5.5 " />
<path id= "57" d=" M -38 -5.5 L -38 5.5 " />
<path id= "58" d=" M 41 -5.5 L 38 -5.5 " />
<path id= "59" d=" M -38 5.5 L -41 5.5 " />
<path id= "60" d=" M 38 -5.5 L 38 5.5 " />
<path id= "61" d=" M -41 16.5 L -41 5.5 " />
<path id= "62" d=" M 38 5.5 L 41 5.5 " />
<path id= "63" d=" M -38 16.5 L -41 16.5 " />
<path id= "64" d=" M 41 5.5 L 41 16.5 " />
<path id= "65" d=" M -38 27.5 L -38 16.5 " />
<path id= "66" d=" M 38 16.5 L 41 16.5 " />
<path id= "67" d=" M -41 27.5 L -38 27.5 " />
<path id= "68" d=" M 38 27.5 L 38 16.5 " />
<path id= "69" d=" M -41 34.25 L -41 27.5 " />
<path id= "70" d=" M 41 27.5 L 38 27.5 " />
<path id= "71" d=" M -41 34.25 L -37.3 34.25 " />
<path id= "72" d=" M 41 27.5 L 41 34.25 " />
<path id= "73" d=" M -37.3 34.25 L -37.3 36.75 " />
<path id= "74" d=" M 41 34.25 L 37.3 34.25 " />
<path id= "75" d=" M -37.3 36.75 L -41 36.75 " />
<path id= "76" d=" M 37.3 34.25 L 37.3 36.75 " />
<path id= "77" d=" M -41 43.5 L -41 36.75 " />
<path id= "78" d=" M 37.3 36.75 L 41 36.75 " />
<path id= "79" d=" M -38 43.5 L -41 43.5 " />
<path id= "80" d=" M 41 36.75 L 41 43.5 " />
<path id= "81" d=" M -38 60 L -38 43.5 " />
<path id= "82" d=" M 38 43.5 L 41 43.5 " />
<path id= "83" d=" M -23.5 60 L -38 60 " />
<path id= "84" d=" M 38 60 L 38 43.5 " />
<path id= "85" d=" M -23.5 57 L -23.5 60 " />
<path id= "86" d=" M 38 60 L 23.5 60 " />
<path id= "87" d=" M -15.75 57 L -23.5 57 " />
<path id= "88" d=" M 23.5 57 L 23.5 60 " />
<path id= "89" d=" M -15.75 53 L -15.75 57 " />
<path id= "90" d=" M 15.75 57 L 23.5 57 " />
<path id= "91" d=" M -17 53 L -15.75 53 " />
<path id= "92" d=" M 15.75 53 L 15.75 57 " />
<path id= "93" d=" M -17 51 L -17 53 " />
<path id= "94" d=" M 17 53 L 15.75 53 " />
<path id= "95" d=" M -15.75 51 L -17 51 " />
<path id= "96" d=" M 17 51 L 17 53 " />
<path id= "97" d=" M -15.75 47.9 L -15.75 51 " />
<path id= "98" d=" M 15.75 51 L 17 51 " />
<path id= "99" d=" M -13.25 47.9 L -15.75 47.9 " />
<path id= "100" d=" M 15.75 47.9 L 15.75 51 " />
<path id= "101" d=" M -13.25 51 L -13.25 47.9 " />
<path id= "102" d=" M 13.25 47.9 L 15.75 47.9 " />
<path id= "103" d=" M -12 51 L -13.25 51 " />
<path id= "104" d=" M 13.25 51 L 13.25 47.9 " />
<path id= "105" d=" M -12 53 L -12 51 " />
<path id= "106" d=" M 12 51 L 13.25 51 " />
<path id= "107" d=" M -13.25 53 L -12 53 " />
<path id= "108" d=" M 12 53 L 12 51 " />
<path id= "109" d=" M -13.25 57 L -13.25 53 " />
<path id= "110" d=" M 13.25 53 L 12 53 " />
<path id= "111" d=" M -5.5 57 L -13.25 57 " />
<path id= "112" d=" M 13.25 57 L 13.25 53 " />
<path id= "113" d=" M -5.5 60 L -5.5 57 " />
<path id= "114" d=" M 5.5 57 L 13.25 57 " />
<path id= "115" d=" M 5.5 60 L -5.5 60 " />
<path id= "116" d=" M 5.5 60 L 5.5 57 " />
<circle cx ="10" cy ="-5" r ="1.75" /><circle cx ="15" cy ="-5" r ="1.75" /><circle cx ="15" cy ="-10" r ="1.75" /><circle cx ="10" cy ="-10" r ="1.75" /><circle cx ="5" cy ="-5" r ="1.75" /><circle cx ="5" cy ="-10" r ="1.75" /><circle cx ="5" cy ="10" r ="1.75" /><circle cx ="10" cy ="10" r ="1.75" /><circle cx ="10" cy ="5" r ="1.75" /><circle cx ="5" cy ="5" r ="1.75" /><path d="M5 1.75 A1.75 1.75 0 0 0 5 -1.75" /><path d="M5 -1.75 A1.75 1.75 0 0 0 5 1.75" /><path d="M10 1.75 A1.75 1.75 0 0 0 10 -1.75" /><path d="M10 -1.75 A1.75 1.75 0 0 0 10 1.75" /><circle cx ="15" cy ="10" r ="1.75" /><circle cx ="15" cy ="5" r ="1.75" /><path d="M15 1.75 A1.75 1.75 0 0 0 15 -1.75" /><path d="M15 -1.75 A1.75 1.75 0 0 0 15 1.75" /><circle cx ="5" cy ="35" r ="1.75" /><circle cx ="10" cy ="35" r ="1.75" /><circle cx ="10" cy ="30" r ="1.75" /><circle cx ="5" cy ="30" r ="1.75" /><circle cx ="10" cy ="25" r ="1.75" /><circle cx ="5" cy ="25" r ="1.75" /><circle cx ="15" cy ="35" r ="1.75" /><circle cx ="15" cy ="30" r ="1.75" /><circle cx ="15" cy ="15" r ="1.75" /><circle cx ="15" cy ="20" r ="1.75" /><circle cx ="15" cy ="25" r ="1.75" /><circle cx ="10" cy ="15" r ="1.75" /><circle cx ="10" cy ="20" r ="1.75" /><circle cx ="5" cy ="15" r ="1.75" /><circle cx ="5" cy ="20" r ="1.75" /><path d="M30 1.75 A1.75 1.75 0 0 0 30 -1.75" /><path d="M30 -1.75 A1.75 1.75 0 0 0 30 1.75" /><circle cx ="30" cy ="5" r ="1.75" /><circle cx ="30" cy ="10" r ="1.75" /><path d="M25 1.75 A1.75 1.75 0 0 0 25 -1.75" /><path d="M25 -1.75 A1.75 1.75 0 0 0 25 1.75" /><circle cx ="25" cy ="5" r ="1.75" /><circle cx ="25" cy ="10" r ="1.75" /><circle cx ="25" cy ="20" r ="1.75" /><circle cx ="25" cy ="15" r ="1.75" /><circle cx ="30" cy ="15" r ="1.75" /><circle cx ="30" cy ="20" r ="1.75" /><circle cx ="25" cy ="-5" r ="1.75" /><circle cx ="30" cy ="-5" r ="1.75" /><circle cx ="20" cy ="-5" r ="1.75" /><path d="M20 1.75 A1.75 1.75 0 0 0 20 -1.75" /><path d="M20 -1.75 A1.75 1.75 0 0 0 20 1.75" /><circle cx ="20" cy ="10" r ="1.75" /><circle cx ="20" cy ="5" r ="1.75" /><circle cx ="20" cy ="15" r ="1.75" /><circle cx ="20" cy ="20" r ="1.75" /><circle cx ="20" cy ="25" r ="1.75" /><circle cx ="25" cy ="25" r ="1.75" /><circle cx ="30" cy ="25" r ="1.75" /><circle cx ="25" cy ="30" r ="1.75" /><circle cx ="30" cy ="30" r ="1.75" /><circle cx ="20" cy ="30" r ="1.75" /><circle cx ="25" cy ="-10" r ="1.75" /><circle cx ="30" cy ="-10" r ="1.75" /><circle cx ="20" cy ="-10" r ="1.75" /><circle cx ="30" cy ="35" r ="1.75" /><circle cx ="25" cy ="35" r ="1.75" /><circle cx ="20" cy ="35" r ="1.75" /><circle cx ="5" cy ="-25" r ="1.75" /><circle cx ="10" cy ="-25" r ="1.75" /><circle cx ="15" cy ="-25" r ="1.75" /><circle cx ="25" cy ="-25" r ="1.75" /><circle cx ="20" cy ="-25" r ="1.75" /><circle cx ="20" cy ="-20" r ="1.75" /><circle cx ="25" cy ="-20" r ="1.75" /><circle cx ="15" cy ="-20" r ="1.75" /><circle cx ="5" cy ="-20" r ="1.75" /><circle cx ="10" cy ="-20" r ="1.75" /><circle cx ="10" cy ="-15" r ="1.75" /><circle cx ="15" cy ="-15" r ="1.75" /><circle cx ="25" cy ="-15" r ="1.75" /><circle cx ="20" cy ="-15" r ="1.75" /><circle cx ="5" cy ="-15" r ="1.75" /><circle cx ="30" cy ="-25" r ="1.75" /><circle cx ="30" cy ="-20" r ="1.75" /><circle cx ="30" cy ="-15" r ="1.75" /><path id= "201" d=" M -5 7.5 L -5 -7.5 " />
<path id= "202" d=" M -2 7.5 L -5 7.5 " />
<path id= "203" d=" M -5 -7.5 L -2 -7.5 " />
<path id= "204" d=" M -2 -7.5 L -2 7.5 " />
<path id= "205" d=" M -5 42.5 L -5 27.5 " />
<path id= "206" d=" M -2 42.5 L -5 42.5 " />
<path id= "207" d=" M -5 27.5 L -2 27.5 " />
<path id= "208" d=" M -2 27.5 L -2 42.5 " />
<circle cx ="30" cy ="-35" r ="1.75" /><circle cx ="30" cy ="-30" r ="1.75" /><circle cx ="25" cy ="-30" r ="1.75" /><circle cx ="25" cy ="-35" r ="1.75" /><circle cx ="15" cy ="-30" r ="1.75" /><circle cx ="15" cy ="-35" r ="1.75" /><circle cx ="20" cy ="-35" r ="1.75" /><circle cx ="20" cy ="-30" r ="1.75" /><circle cx ="10" cy ="-30" r ="1.75" /><circle cx ="10" cy ="-35" r ="1.75" /><circle cx ="5" cy ="-35" r ="1.75" /><circle cx ="5" cy ="-30" r ="1.75" /><path id= "221" d=" M -5 -27.5 L -5 -42.5 " />
<path id= "222" d=" M -2 -27.5 L -5 -27.5 " />
<path id= "223" d=" M -5 -42.5 L -2 -42.5 " />
<path id= "224" d=" M -2 -42.5 L -2 -27.5 " />
<circle cx ="5" cy ="-40" r ="1.75" /><circle cx ="30" cy ="-40" r ="1.75" /><circle cx ="25" cy ="-40" r ="1.75" /><circle cx ="20" cy ="-40" r ="1.75" /><circle cx ="10" cy ="-40" r ="1.75" /><circle cx ="15" cy ="-40" r ="1.75" /><circle cx ="25" cy ="40" r ="1.75" /><circle cx ="20" cy ="40" r ="1.75" /><circle cx ="15" cy ="40" r ="1.75" /><circle cx ="5" cy ="40" r ="1.75" /><circle cx ="10" cy ="40" r ="1.75" /><circle cx ="30" cy ="40" r ="1.75" /></g>
</g>



<g id="Ortho_0_0"
   transform="rotate(-90,320,180) translate(320,180) scale(1,1)"
  >
<g   fill="none"
   stroke="rgb(0, 0, 0)"
   stroke-linecap="butt"
   stroke-linejoin="miter"
   stroke-width="0.350000"
   transform="scale(1,-1)"
  >
<path id= "1" d=" M 41 47.5 L 41 41.5 " />
<path id= "2" d=" M 38 41.5 L 41 41.5 " />
<path id= "3" d=" M 38 47.5 L 38 44.5 " />
<path id= "4" d=" M 38 44.5 L 23.5 44.5 " />
<path id= "5" d=" M 23.5 44.5 L 23.5 47.5 " />
<path id= "6" d=" M 15.75 47.5 L 23.5 47.5 " />
<path id= "7" d=" M 15.75 47.5 L 15.75 43.5 " />
<path id= "8" d=" M 15.75 43.5 L 13.25 43.5 " />
<path id= "9" d=" M 13.25 43.5 L 13.25 47.5 " />
<path id= "10" d=" M 5.5 47.5 L 13.25 47.5 " />
<path id= "11" d=" M 5.5 47.5 L 5.5 44.5 " />
<path id= "12" d=" M 5.5 44.5 L -5.5 44.5 " />
<path id= "13" d=" M -5.5 44.5 L -5.5 47.5 " />
<path id= "14" d=" M -13.25 47.5 L -5.5 47.5 " />
<path id= "15" d=" M -13.25 43.5 L -13.25 47.5 " />
<path id= "16" d=" M -15.75 43.5 L -13.25 43.5 " />
<path id= "17" d=" M -15.75 47.5 L -15.75 43.5 " />
<path id= "18" d=" M -23.5 47.5 L -15.75 47.5 " />
<path id= "19" d=" M -23.5 44.5 L -23.5 47.5 " />
<path id= "20" d=" M -38 44.5 L -23.5 44.5 " />
<path id= "21" d=" M -38 47.5 L -38 44.5 " />
<path id= "22" d=" M -41 47.5 L -38 47.5 " />
<path id= "23" d=" M -41 41.5 L -41 47.5 " />
<path id= "24" d=" M -38 41.5 L -41 41.5 " />
<path id= "25" d=" M -38 34.75 L -38 41.5 " />
<path id= "26" d=" M -32 34.75 L -38 34.75 " />
<path id= "27" d=" M -32 36 L -32 34.75 " />
<path id= "28" d=" M -30 36 L -32 36 " />
<path id= "29" d=" M -30 34.75 L -30 36 " />
<path id= "30" d=" M -27 34.75 L -30 34.75 " />
<path id= "31" d=" M -27 32.25 L -27 34.75 " />
<path id= "32" d=" M -30 32.25 L -27 32.25 " />
<path id= "33" d=" M -30 31 L -30 32.25 " />
<path id= "34" d=" M -32 31 L -30 31 " />
<path id= "35" d=" M -32 32.25 L -32 31 " />
<path id= "36" d=" M -38 32.25 L -32 32.25 " />
<path id= "37" d=" M -38 25.5 L -38 32.25 " />
<path id= "38" d=" M -41 25.5 L -38 25.5 " />
<path id= "39" d=" M -41 5.5 L -41 25.5 " />
<path id= "40" d=" M -38 5.5 L -41 5.5 " />
<path id= "41" d=" M -38 -5.5 L -38 5.5 " />
<path id= "42" d=" M -41 -5.5 L -38 -5.5 " />
<path id= "43" d=" M -41 -25.5 L -41 -5.5 " />
<path id= "44" d=" M -38 -25.5 L -41 -25.5 " />
<path id= "45" d=" M -38 -32.25 L -38 -25.5 " />
<path id= "46" d=" M -38 -32.25 L -32 -32.25 " />
<path id= "47" d=" M -32 -32.25 L -32 -31 " />
<path id= "48" d=" M -32 -31 L -30 -31 " />
<path id= "49" d=" M -30 -31 L -30 -32.25 " />
<path id= "50" d=" M -30 -32.25 L -27 -32.25 " />
<path id= "51" d=" M -27 -32.25 L -27 -34.75 " />
<path id= "52" d=" M -27 -34.75 L -30 -34.75 " />
<path id= "53" d=" M -30 -34.75 L -30 -36 " />
<path id= "54" d=" M -30 -36 L -32 -36 " />
<path id= "55" d=" M -32 -36 L -32 -34.75 " />
<path id= "56" d=" M -32 -34.75 L -38 -34.75 " />
<path id= "57" d=" M -38 -41.5 L -38 -34.75 " />
<path id= "58" d=" M -41 -41.5 L -38 -41.5 " />
<path id= "59" d=" M -41 -47.5 L -41 -41.5 " />
<path id= "60" d=" M -38 -47.5 L -41 -47.5 " />
<path id= "61" d=" M -38 -47.5 L -38 -44.5 " />
<path id= "62" d=" M -38 -44.5 L -23.5 -44.5 " />
<path id= "63" d=" M -23.5 -44.5 L -23.5 -47.5 " />
<path id= "64" d=" M -15.75 -47.5 L -23.5 -47.5 " />
<path id= "65" d=" M -15.75 -47.5 L -15.75 -43.5 " />
<path id= "66" d=" M -15.75 -43.5 L -13.25 -43.5 " />
<path id= "67" d=" M -13.25 -43.5 L -13.25 -47.5 " />
<path id= "68" d=" M -5.5 -47.5 L -13.25 -47.5 " />
<path id= "69" d=" M -5.5 -44.5 L -5.5 -47.5 " />
<path id= "70" d=" M 5.5 -44.5 L -5.5 -44.5 " />
<path id= "71" d=" M 5.5 -47.5 L 5.5 -44.5 " />
<path id= "72" d=" M 13.25 -47.5 L 5.5 -47.5 " />
<path id= "73" d=" M 13.25 -43.5 L 13.25 -47.5 " />
<path id= "74" d=" M 15.75 -43.5 L 13.25 -43.5 " />
<path id= "75" d=" M 15.75 -47.5 L 15.75 -43.5 " />
<path id= "76" d=" M 23.5 -47.5 L 15.75 -47.5 " />
<path id= "77" d=" M 23.5 -44.5 L 23.5 -47.5 " />
<path id= "78" d=" M 38 -44.5 L 23.5 -44.5 " />
<path id= "79" d=" M 38 -47.5 L 38 -44.5 " />
<path id= "80" d=" M 41 -47.5 L 38 -47.5 " />
<path id= "81" d=" M 41 -41.5 L 41 -47.5 " />
<path id= "82" d=" M 41 -41.5 L 38 -41.5 " />
<path id= "83" d=" M 38 -41.5 L 38 -34.75 " />
<path id= "84" d=" M 32 -34.75 L 38 -34.75 " />
<path id= "85" d=" M 32 -36 L 32 -34.75 " />
<path id= "86" d=" M 30 -36 L 32 -36 " />
<path id= "87" d=" M 30 -34.75 L 30 -36 " />
<path id= "88" d=" M 27 -34.75 L 30 -34.75 " />
<path id= "89" d=" M 27 -32.25 L 27 -34.75 " />
<path id= "90" d=" M 30 -32.25 L 27 -32.25 " />
<path id= "91" d=" M 30 -31 L 30 -32.25 " />
<path id= "92" d=" M 32 -31 L 30 -31 " />
<path id= "93" d=" M 32 -32.25 L 32 -31 " />
<path id= "94" d=" M 38 -32.25 L 32 -32.25 " />
<path id= "95" d=" M 38 -32.25 L 38 -25.5 " />
<path id= "96" d=" M 38 -25.5 L 41 -25.5 " />
<path id= "97" d=" M 41 -5.5 L 41 -25.5 " />
<path id= "98" d=" M 41 -5.5 L 38 -5.5 " />
<path id= "99" d=" M 38 -5.5 L 38 5.5 " />
<path id= "100" d=" M 38 5.5 L 41 5.5 " />
<path id= "101" d=" M 41 25.5 L 41 5.5 " />
<path id= "102" d=" M 41 25.5 L 38 25.5 " />
<path id= "103" d=" M 38 25.5 L 38 32.25 " />
<path id= "104" d=" M 38 32.25 L 32 32.25 " />
<path id= "105" d=" M 32 32.25 L 32 31 " />
<path id= "106" d=" M 32 31 L 30 31 " />
<path id= "107" d=" M 30 31 L 30 32.25 " />
<path id= "108" d=" M 30 32.25 L 27 32.25 " />
<path id= "109" d=" M 27 32.25 L 27 34.75 " />
<path id= "110" d=" M 27 34.75 L 30 34.75 " />
<path id= "111" d=" M 30 34.75 L 30 36 " />
<path id= "112" d=" M 30 36 L 32 36 " />
<path id= "113" d=" M 32 36 L 32 34.75 " />
<path id= "114" d=" M 32 34.75 L 38 34.75 " />
<path id= "115" d=" M 38 34.75 L 38 41.5 " />
<path id= "116" d=" M 38 47.5 L 41 47.5 " />
<path d="M-29 13 A14.5 14.5 0 1 0 5.32907e-15 13" /><path id= "118" d=" M -29 13 L -29 -13 " />
<path id= "119" d=" M 5.45578e-15 13 L -5.73791e-17 -13 " />
<path d="M-1.77636e-15 -13 A14.5 14.5 0 0 0 -29 -13" /><path d="M5 20.5 A3 3 0 0 0 8 23.5" /><path id= "122" d=" M 5 20.5 L 5 -24.5 " />
<path id= "123" d=" M 32 23.5 L 8 23.5 " />
<path d="M8 -27.5 A3 3 0 0 0 5 -24.5" /><path d="M32 23.5 A3 3 0 0 0 35 20.5" /><path id= "126" d=" M 8 -27.5 L 32 -27.5 " />
<path id= "127" d=" M 35 -24.5 L 35 20.5 " />
<path d="M35 -24.5 A3 3 0 0 0 32 -27.5" /></g>
</g>



<g id="Ortho_0_0"
   transform="rotate(-90,420.5,180) translate(420.5,180) scale(1,1)"
  >
<g   fill="none"
   stroke="rgb(0, 0, 0)"
   stroke-linecap="butt"
   stroke-linejoin="miter"
   stroke-width="0.350000"
   transform="scale(1,-1)"
  >
<path id= "1" d=" M -41 47.5 L -41 41.5 " />
<path id= "2" d=" M -38 -44.5 L -23.5 -44.5 " />
<path id= "3" d=" M -38 -47.5 L -38 -44.5 " />
<path id= "4" d=" M -41 -47.5 L -38 -47.5 " />
<path id= "5" d=" M -41 -41.5 L -41 -47.5 " />
<path id= "6" d=" M -41 -41.5 L -38 -41.5 " />
<path id= "7" d=" M -38 -41.5 L -38 -34.75 " />
<path id= "8" d=" M -32 -34.75 L -38 -34.75 " />
<path id= "9" d=" M -32 -36 L -32 -34.75 " />
<path id= "10" d=" M -30 -36 L -32 -36 " />
<path id= "11" d=" M -30 -34.75 L -30 -36 " />
<path id= "12" d=" M -27 -34.75 L -30 -34.75 " />
<path id= "13" d=" M -27 -32.25 L -27 -34.75 " />
<path id= "14" d=" M -30 -32.25 L -27 -32.25 " />
<path id= "15" d=" M -30 -31 L -30 -32.25 " />
<path id= "16" d=" M -32 -31 L -30 -31 " />
<path id= "17" d=" M -32 -32.25 L -32 -31 " />
<path id= "18" d=" M -38 -32.25 L -32 -32.25 " />
<path id= "19" d=" M -38 -32.25 L -38 -25.5 " />
<path id= "20" d=" M -38 -25.5 L -41 -25.5 " />
<path id= "21" d=" M -41 -5.5 L -41 -25.5 " />
<path id= "22" d=" M -41 -5.5 L -38 -5.5 " />
<path id= "23" d=" M -38 -5.5 L -38 5.5 " />
<path id= "24" d=" M -38 5.5 L -41 5.5 " />
<path id= "25" d=" M -41 25.5 L -41 5.5 " />
<path id= "26" d=" M -38 25.5 L -41 25.5 " />
<path id= "27" d=" M -38 32.25 L -38 25.5 " />
<path id= "28" d=" M -38 32.25 L -32 32.25 " />
<path id= "29" d=" M -32 32.25 L -32 31 " />
<path id= "30" d=" M -32 31 L -30 31 " />
<path id= "31" d=" M -30 31 L -30 32.25 " />
<path id= "32" d=" M -30 32.25 L -27 32.25 " />
<path id= "33" d=" M -27 32.25 L -27 34.75 " />
<path id= "34" d=" M -27 34.75 L -30 34.75 " />
<path id= "35" d=" M -30 34.75 L -30 36 " />
<path id= "36" d=" M -30 36 L -32 36 " />
<path id= "37" d=" M -32 36 L -32 34.75 " />
<path id= "38" d=" M -32 34.75 L -38 34.75 " />
<path id= "39" d=" M -38 41.5 L -38 34.75 " />
<path id= "40" d=" M -41 41.5 L -38 41.5 " />
<path id= "41" d=" M -38 47.5 L -41 47.5 " />
<path id= "42" d=" M -38 47.5 L -38 44.5 " />
<path id= "43" d=" M -38 44.5 L -23.5 44.5 " />
<path id= "44" d=" M -23.5 44.5 L -23.5 47.5 " />
<path id= "45" d=" M -5.5 47.5 L -23.5 47.5 " />
<path id= "46" d=" M -5.5 47.5 L -5.5 44.5 " />
<path id= "47" d=" M -5.5 44.5 L 5.5 44.5 " />
<path id= "48" d=" M 5.5 44.5 L 5.5 47.5 " />
<path id= "49" d=" M 13.25 47.5 L 5.5 47.5 " />
<path id= "50" d=" M 13.25 47.5 L 13.25 43.5 " />
<path id= "51" d=" M 13.25 43.5 L 15.75 43.5 " />
<path id= "52" d=" M 15.75 43.5 L 15.75 47.5 " />
<path id= "53" d=" M 23.5 47.5 L 15.75 47.5 " />
<path id= "54" d=" M 23.5 44.5 L 23.5 47.5 " />
<path id= "55" d=" M 38 44.5 L 23.5 44.5 " />
<path id= "56" d=" M 38 47.5 L 38 44.5 " />
<path id= "57" d=" M 41 47.5 L 38 47.5 " />
<path id= "58" d=" M 41 41.5 L 41 47.5 " />
<path id= "59" d=" M 41 41.5 L 38 41.5 " />
<path id= "60" d=" M 38 41.5 L 38 34.75 " />
<path id= "61" d=" M 32 34.75 L 38 34.75 " />
<path id= "62" d=" M 32 36 L 32 34.75 " />
<path id= "63" d=" M 30 36 L 32 36 " />
<path id= "64" d=" M 30 34.75 L 30 36 " />
<path id= "65" d=" M 27 34.75 L 30 34.75 " />
<path id= "66" d=" M 27 32.25 L 27 34.75 " />
<path id= "67" d=" M 30 32.25 L 27 32.25 " />
<path id= "68" d=" M 30 31 L 30 32.25 " />
<path id= "69" d=" M 32 31 L 30 31 " />
<path id= "70" d=" M 32 32.25 L 32 31 " />
<path id= "71" d=" M 38 32.25 L 32 32.25 " />
<path id= "72" d=" M 38 32.25 L 38 25.5 " />
<path id= "73" d=" M 38 25.5 L 41 25.5 " />
<path id= "74" d=" M 41 5.5 L 41 25.5 " />
<path id= "75" d=" M 38 5.5 L 41 5.5 " />
<path id= "76" d=" M 38 -5.5 L 38 5.5 " />
<path id= "77" d=" M 41 -5.5 L 38 -5.5 " />
<path id= "78" d=" M 41 -25.5 L 41 -5.5 " />
<path id= "79" d=" M 38 -25.5 L 41 -25.5 " />
<path id= "80" d=" M 38 -32.25 L 38 -25.5 " />
<path id= "81" d=" M 38 -32.25 L 32 -32.25 " />
<path id= "82" d=" M 32 -32.25 L 32 -31 " />
<path id= "83" d=" M 32 -31 L 30 -31 " />
<path id= "84" d=" M 30 -31 L 30 -32.25 " />
<path id= "85" d=" M 30 -32.25 L 27 -32.25 " />
<path id= "86" d=" M 27 -32.25 L 27 -34.75 " />
<path id= "87" d=" M 27 -34.75 L 30 -34.75 " />
<path id= "88" d=" M 30 -34.75 L 30 -36 " />
<path id= "89" d=" M 30 -36 L 32 -36 " />
<path id= "90" d=" M 32 -36 L 32 -34.75 " />
<path id= "91" d=" M 32 -34.75 L 38 -34.75 " />
<path id= "92" d=" M 38 -41.5 L 38 -34.75 " />
<path id= "93" d=" M 41 -41.5 L 38 -41.5 " />
<path id= "94" d=" M 41 -47.5 L 41 -41.5 " />
<path id= "95" d=" M 38 -47.5 L 41 -47.5 " />
<path id= "96" d=" M 38 -47.5 L 38 -44.5 " />
<path id= "97" d=" M 38 -44.5 L 23.5 -44.5 " />
<path id= "98" d=" M 23.5 -44.5 L 23.5 -47.5 " />
<path id= "99" d=" M 15.75 -47.5 L 23.5 -47.5 " />
<path id= "100" d=" M 15.75 -47.5 L 15.75 -43.5 " />
<path id= "101" d=" M 15.75 -43.5 L 13.25 -43.5 " />
<path id= "102" d=" M 13.25 -43.5 L 13.25 -47.5 " />
<path id= "103" d=" M 5.5 -47.5 L 13.25 -47.5 " />
<path id= "104" d=" M 5.5 -44.5 L 5.5 -47.5 " />
<path id= "105" d=" M -5.5 -44.5 L 5.5 -44.5 " />
<path id= "106" d=" M -5.5 -47.5 L -5.5 -44.5 " />
<path id= "107" d=" M -13.25 -47.5 L -5.5 -47.5 " />
<path id= "108" d=" M -13.25 -47.5 L -13.25 -43.5 " />
<path id= "109" d=" M -13.25 -43.5 L -15.75 -43.5 " />
<path id= "110" d=" M -15.75 -43.5 L -15.75 -47.5 " />
<path id= "111" d=" M -23.5 -47.5 L -15.75 -47.5 " />
<path id= "112" d=" M -23.5 -44.5 L -23.5 -47.5 " />
<path id= "113" d=" M -8 9 L -27 9 " />
<path d="M-8 9 A3 3 0 0 0 -5 6" /><path d="M-30 6 A3 3 0 0 0 -27 9" /><path id= "116" d=" M -5 -6 L -5 6 " />
<path id= "117" d=" M -30 6 L -30 -6 " />
<path d="M-5 -6 A3 3 0 0 0 -8 -9" /><path d="M-27 -9 A3 3 0 0 0 -30 -6" /><path id= "120" d=" M -27 -9 L -8 -9 " />
</g>
</g>



</svg>

